<svg width="35" height="38" fill="none" xmlns="http://www.w3.org/2000/svg"><path d="M13.543 35.668H1.111A1.1 1.1 0 000 36.755a1.1 1.1 0 001.111 1.09h12.432a1.1 1.1 0 001.111-1.09 1.1 1.1 0 00-1.11-1.087zm0-7.337H1.111c-.615 0-1.111.49-1.111 1.092 0 .6.499 1.09 1.111 1.09h12.432c.615 0 1.111-.493 1.111-1.09 0-.602-.496-1.092-1.11-1.092zm0-7.327H1.111c-.615 0-1.111.49-1.111 1.092a1.1 1.1 0 001.111 1.09h12.432a1.1 1.1 0 001.111-1.09c0-.602-.496-1.092-1.11-1.092zm0-7.336H1.111C.496 13.668 0 14.161 0 14.76c0 .605.499 1.092 1.111 1.092h12.432c.615 0 1.111-.49 1.111-1.092 0-.6-.496-1.092-1.11-1.092zm19.891 22h-12.43a1.1 1.1 0 00-1.11 1.087 1.1 1.1 0 001.11 1.09h12.43c.615 0 1.114-.49 1.114-1.09a1.104 1.104 0 00-1.114-1.087zm0-7.337h-12.43c-.614 0-1.11.49-1.11 1.092 0 .6.498 1.09 1.11 1.09h12.43c.615 0 1.114-.493 1.114-1.09a1.105 1.105 0 00-1.114-1.092zm0-7.327h-12.43c-.614 0-1.11.49-1.11 1.092a1.1 1.1 0 001.11 1.09h12.43c.615 0 1.114-.49 1.114-1.09a1.106 1.106 0 00-1.114-1.092zm0-7.336h-12.43c-.614 0-1.11.493-1.11 1.092a1.1 1.1 0 001.11 1.092h12.43c.615 0 1.114-.49 1.114-1.092a1.107 1.107 0 00-1.114-1.092zM13.54 0H1.111C.496 0 0 .493 0 1.092c0 .6.499 1.09 1.111 1.09h12.43c.614 0 1.113-.49 1.113-1.09 0-.6-.498-1.092-1.114-1.092zm0 7H1.111A1.1 1.1 0 000 8.09c0 .599.499 1.089 1.111 1.089h12.43c.614 0 1.113-.49 1.113-1.09C14.654 7.49 14.156 7 13.54 7z" fill="#00C3B5"/></svg>