<svg width="26" height="38" fill="none" xmlns="http://www.w3.org/2000/svg"><path d="M12.995 0C5.828 0 0 5.83 0 12.997c0 3.997 1.821 7.696 5.003 10.195a.848.848 0 00.213.209c.02.01 1.7 1.146 1.7 3.317 0 .038.032.056.036.095.004.026-.024.052-.016.084l2.132 9.74c.081.374.411.64.795.64h6.264c.38 0 .71-.268.791-.64l2.14-9.74c.008-.032-.024-.058-.02-.084.004-.04.04-.057.04-.095 0-2.142 1.63-3.27 1.698-3.317a.585.585 0 00.175-.18C24.163 20.722 26 17.003 26 12.994 26.002 5.83 20.166 0 12.995 0zm2.478 35.65H10.52l-.179-.803h5.302l-.171.803zm.533-2.433H9.99l-.179-.81h6.374l-.18.81zm.537-2.434H9.455l-.71-3.246h8.513l-.715 3.245zm3.269-8.74a.738.738 0 00-.171.18c-.547.438-1.846 1.673-2.132 3.684H13.82V14.536a1.59 1.59 0 01.466-1.141 1.6 1.6 0 011.149-.48.819.819 0 00.815-.813.816.816 0 00-.815-.813c-.873 0-1.69.34-2.303.956-.053.058-.077.136-.131.201-.054-.065-.082-.147-.14-.209a3.225 3.225 0 00-2.286-.948h-.012a.813.813 0 00.004 1.627h.008a1.6 1.6 0 011.137.475c.307.304.478.718.478 1.151v11.365H8.489c-.288-2.019-1.593-3.252-2.132-3.69a.81.81 0 00-.17-.168c-2.898-2.188-4.552-5.488-4.552-9.05 0-6.27 5.094-11.37 11.364-11.37 6.272 0 11.376 5.098 11.376 11.37-.004 3.56-1.666 6.859-4.563 9.044z" fill="#00C3B5"/></svg>