<svg width="61" height="31" fill="none" xmlns="http://www.w3.org/2000/svg"><path d="M56.01 15.044c-.015-.029.005-.058-.016-.081-.015-.032-.052-.032-.07-.055a30.136 30.136 0 00-10.86-10.823c-.022-.021-.022-.06-.053-.076-.026-.013-.055 0-.087-.013A29.823 29.823 0 0030.004 0 29.877 29.877 0 0015.08 3.996c-.032.013-.06-.003-.087.013-.026.015-.037.057-.055.078A30.144 30.144 0 004.094 14.892c-.021.04-.066.04-.082.07-.02.027 0 .066-.015.095A29.601 29.601 0 000 29.926C0 30.518.478 31 1.072 31H58.94c.596 0 1.077-.485 1.077-1.074a29.643 29.643 0 00-4.007-14.882zM27.461 26.318a2.543 2.543 0 015.087 0 2.543 2.543 0 01-2.54 2.534 2.545 2.545 0 01-2.547-2.534zm6.383 2.534c.496-.744.851-1.583.851-2.534 0-.896-.318-1.687-.76-2.397l7.058-7.043c.42-.42.42-1.098 0-1.514a1.071 1.071 0 00-1.524 0l-7.052 7.034c-.717-.434-1.514-.76-2.412-.76-2.586 0-4.696 2.102-4.696 4.683 0 .948.355 1.79.857 2.533H2.168A27.513 27.513 0 015.387 17l5.281 3.036c.168.097.355.147.544.147.37 0 .733-.189.93-.54a1.073 1.073 0 00-.394-1.464L6.472 15.14a27.926 27.926 0 018.695-8.688l3.053 5.272c.2.345.565.54.933.54a1.079 1.079 0 00.933-1.611l-3.07-5.299c3.582-1.889 7.626-2.992 11.911-3.152v6.082a1.074 1.074 0 102.15 0V2.203c4.285.163 8.33 1.26 11.905 3.152l-3.063 5.298a1.073 1.073 0 00.394 1.464c.168.1.354.147.538.147.37 0 .734-.194.933-.54l3.054-5.279a28.09 28.09 0 018.7 8.69l-5.277 3.043a1.065 1.065 0 00-.394 1.464 1.07 1.07 0 001.472.393l5.281-3.042a27.534 27.534 0 013.224 11.861h-24v-.002z" fill="#00C3B5"/></svg>