<svg width="119" height="120" fill="none" xmlns="http://www.w3.org/2000/svg"><path fill-rule="evenodd" clip-rule="evenodd" d="M67.816 31.604c-1.02-1.353-1.562-3.176-2.688-4.258-2.574-2.474-8.531.474-5.761 5.239.88 1.513 1.76 2.993 2.614 4.535l7.88 13.56c.499.642 1.136 1.328 1.757 1.814.253.198.675.485 1.024.7.427.262.836.393 1.199.703l.015 10.167C74.49 64 84.45 58 86.02 57.14c2.686-1.473 5.62-.304 7.048 1.29.689.768 1.337 1.774 1.614 3.139.387 1.907-.09 2.635-.583 4.174l4.851-.003.005-11.914c3.729-1.805 6.004-4.701 5.999-10.127V19.332c0-2.982.36-4.865-1.612-6.417-1.498-1.18-4.249-1.025-5.54 1.068-1.048 1.696-.629 5.389-.629 7.6 0 3.02.131 9.292.005 12.058-.068 1.482-1.79 1.605-1.984.258l-.019-16.288c0-2.848.849-8.292-3.794-8.405-1.428-.035-2.236.563-2.917 1.25-1.51 1.527-1.062 4.525-1.062 7.022 0 2.94.16 14.383-.003 16.29-.116 1.366-1.786 1.423-1.98.128l-.019-20.39c0-1.332.117-2.348-.545-3.4-.495-.785-1.2-1.474-2.333-1.77-2.438-.636-4.442 1.056-4.81 2.99-.24 1.26-.076 17.002-.076 20.19 0 1.169.345 3.11-.834 3.282-1.468.216-1.17-1.613-1.17-2.752 0-3.724.25-18.857-.197-20.185-1.146-3.405-5.93-3.575-7.267-.278-.843 2.078.158 16.561-.353 20.02z" fill="#00C3B5"/><path fill-rule="evenodd" clip-rule="evenodd" d="M65.478 24.86c.109-.157.105.276.124-.363l-.01-4.364H54.085c-.623-.06-.198.011-.38-.23-.267-.358-.41-.785-.694-1.218-2.229-3.4-5.247-4.613-9.506-4.611H19.173c-2.952 0-4.868-.35-6.34 1.689-1.474 2.044-.361 4.614 1.204 5.535 1.576.928 5.538.56 7.649.56l12.034.002c1.386.12 1.44 1.875.01 2.001-1.807.16-13.41.002-16.276.002-2.55 0-5.4-.451-7 1.042-.444.415-.572.486-.869 1.113a3.935 3.935 0 00-.396 1.655c-.024 1.432.53 2.225 1.261 2.912 1.617 1.522 4.424 1.058 7.004 1.058 2.905 0 14.409-.159 16.27.002 1.405.122 1.334 1.82.128 1.99l-20.365.018c-1.957 0-4.416.03-5.17 2.884-.636 2.4 1.087 4.472 3.004 4.82 1.269.23 16.96.07 20.151.07 1.217 0 3.123-.355 3.276.847.187 1.461-1.612 1.156-2.747 1.156-3.742 0-18.812-.254-20.167.2-3.21 1.077-3.698 5.725-.348 7.238 1.108.5 2.458.345 3.72.345 5.441 0 10.886-.018 16.326.003-.11.113-.09.1-.247.223a6.71 6.71 0 01-.245.176c-1.139.742-2.895 1.442-3.793 2.423-2.346 2.565.559 8.487 5.368 5.64 4.45-2.635 9.2-5.22 13.587-7.852 1.385-.83 3.314-1.748 4.487-2.658 2.205-1.71 2.699-3.482 3.132-3.95l10.209-.005c-.395-1.05-6.147-10.661-7.007-12.266-2.181-4.072 1.732-10.625 8.455-8.086zM53.541 94.315c-.19.222-.155-.35-.152.37l.002 4.347 9.159.002c.485 0 .97.003 1.455 0 1.177-.008 1.133-.135 1.3.24 1.108 1.645 1.48 2.852 3.82 4.322 2.086 1.31 3.69 1.505 6.517 1.501h24.465c2.956 0 4.857.243 6.161-1.86 1.374-2.216.112-4.622-1.456-5.45-1.567-.828-5.582-.474-7.614-.474-1.008 0-11.77.08-12.237-.05-.933-.26-1.246-1.904.591-1.961 5.265-.165 10.842.005 16.142.005 2.584 0 5.525.39 7.033-1.128.592-.596 1.172-1.806 1.076-3.075-.342-4.468-5.894-3.58-8.505-3.58-2.188 0-15.31.148-16.242-.024-1.021-.188-1.39-1.933.496-1.983 1.301-.034 2.667.005 3.976.005 5.378 0 10.756-.004 16.134 0 1.362.001 2.45.028 3.432-.645a3.904 3.904 0 001.641-2.475c.495-2.401-1.281-4.347-3.25-4.614-1.41-.19-16.898-.045-20.205-.045-1.21 0-3.107.358-3.036-1.059.066-1.306 1.935-.947 3.168-.947 3.633 0 18.596.236 19.855-.233 3.303-1.232 3.509-6.012-.012-7.312-1.737-.642-16.41.051-19.816-.268.886-.786 3.43-1.74 4.33-2.776 1.359-1.563.886-3.988-.315-5.238-1.5-1.562-3.213-1.51-5.07-.42-2.111 1.238-17.314 9.918-18.062 10.517-2.359 1.89-2.2 2.796-3.127 3.958l-10.219-.003c.32.894 6.24 10.883 6.963 12.198 2.184 3.972-1.401 10.66-8.398 8.155z" fill="#00C3B5"/><path fill-rule="evenodd" clip-rule="evenodd" d="M19.849 65.386c-.344.297-.833.457-1.275.754-3.46 2.333-4.51 5.292-4.509 9.608l-.014 24.5c-.001 2.896-.157 4.926 1.859 6.179 2.243 1.394 4.604.092 5.445-1.483.791-1.48.469-5.638.469-7.61 0-1.052-.086-11.743.058-12.26.261-.933 1.896-1.247 1.947.598.148 5.295-.005 10.84-.005 16.165 0 2.602-.474 5.379 1.163 7.023.697.7 1.753 1.196 3.053 1.096 4.439-.343 3.554-5.791 3.554-8.517 0-2.141-.144-15.389.031-16.27.21-1.053 1.93-1.347 1.983.502.036 1.302-.004 2.672-.004 3.982 0 5.385.004 10.771 0 16.157-.001 1.428-.083 2.382.66 3.428.492.694 1.217 1.414 2.444 1.652 2.439.473 4.36-1.252 4.626-3.286.174-1.328.033-16.94.033-20.202 0-1.214-.358-3.128 1.07-3.037 1.302.084.93 2 .93 3.17 0 3.657-.238 18.604.246 19.893.677 1.804 2.975 3.344 5.368 2.141 2.246-1.128 2.16-3.018 2.16-5.878 0-2.397-.154-14.86.053-16.113 1.085 1.37 1.57 3.242 2.76 4.325 1.906 1.736 6.042.606 6.422-2.68.132-1.143-.343-1.925-.778-2.703-.866-1.55-1.735-3.013-2.616-4.534-1.167-2.015-6.853-12.15-7.882-13.56-.687-.943-1.833-1.946-2.883-2.544-.3-.172-.734-.31-1.065-.596V55.05c-.94.366-2.266 1.24-3.13 1.734-3.068 1.753-5.901 3.52-9.046 5.24-2.613 1.427-5.613.322-7.035-1.263-1.89-2.105-2.143-4.094-1.12-7.164-.208-.16.326-.143-.358-.126l-4.359-.005-.001 9.171c0 .885.18 2.575-.254 2.749zm54.137 53.789l24.97.013.008-11.819-24.995-.022.017 11.828zM119 45.096l-.003-24.895-11.79-.037-.018 24.972 11.811-.04zM45.057 0L20.148.012l-.014 11.793 24.933.013L45.057 0zM.027 98.972l11.768.026.005-24.97-11.8.04.027 24.904z" fill="#00C3B5"/><path fill-rule="evenodd" clip-rule="evenodd" d="M119 45.096l-11.812.04.018-24.972 11.791.036c-.171-.316-.248-.179-1.301-.175-2.419.009-9.114-.12-10.515.029-.221.642-.252 24.505-.025 25.194l11.343.033c.769-.06.28.007.501-.185zM.027 98.972c.22.196-.251.17.368.163l11.42-.034c.165-.408.297-24.186.047-25.201l-10.145-.001c-.72 0-1.37-.114-1.717.168l11.8-.039-.005 24.97-11.768-.026zM45.056 0l.01 11.818-24.933-.013.015-11.793c-.171.198-.142-.254-.146.383l.002 11.446c.65.206 24.53.226 25.162.017L45.215.65c-.013-.618-.028-.494-.159-.651zm28.93 119.175l-.016-11.829 24.994.023-.701-.121c-3.497-.045-23.716-.099-24.416.073-.156 1.688-.026 7.969-.034 10.54-.003.996-.14 1.12.173 1.314zm-8.681-19.9c-.167-.375-.123-.25-1.3-.241-.485.003-.97 0-1.455 0l-9.16-.002-.001-4.347c-.003-.72-.037-.148.152-.37-.192-.173.251-.14-.247-.146-.147.81-.229 4.34.07 4.953 2.36.299 10.615-.268 11.94.153zm.173-74.415c.116.182-.178.162.205.141l.052-4.939c-1.818-.363-10.42.243-12.03-.159.183.241-.242.17.38.23h11.506l.01 4.364c-.018.639-.014.206-.123.364zM19.85 65.386c.433-.174.253-1.864.253-2.749l.002-9.171 4.359.005c.684-.018.15-.034.358.126l.187-.196c-.736-.172-4.352-.184-5.01.01-.197 2.34.324 10.555-.15 11.975z" fill="#00C3B5"/></svg>