<svg width="293" height="141" fill="none" xmlns="http://www.w3.org/2000/svg"><path fill-rule="evenodd" clip-rule="evenodd" d="M13.264 49.413c-3.905-2.504-2.916-3.006-3.592-7.422-.419-2.734-3.26-4.885-6.613-3.345-9.4 4.316 4.866 26.504 15.825 19.99 5.283-3.14 3.124-10.238 6.753-14.462l.028 22.189c.001 12.207-2.971 40.402-4.188 55.222-.498 6.075-2.232 12.854 1.58 16.439 4.244 3.992 10.73 1.252 11.934-3.81.674-2.833 2.648-31.118 3.094-36.553.444-5.424.598-13.134 1.596-18.225l3.815-.025c1.538 6.626 2.994 44.193 4.6 54.156.864 5.361 6.713 8.126 11.51 4.937 4.537-3.017 2.659-10.16 2.183-16.315-1.134-14.655-4.2-42.136-4.213-53.986l.003-22.473c3.949 1.783 4.291 6.57 11.036 8.484 4.848 1.375 10.352 3.4 15.036 4.318.192-3.148-.652-8.066-1.94-10.387-2.093-.367-4.218-.033-6.004-1.004-6.715-3.649-4.116-1.146-11.442-8.34-9.124-8.96-6.142-8.895-17.428-8.885-17.33.015-26.76-3.586-32.534 17.193l-1.04 2.304zM231.17 67.328c-1.744-4.976-7.174-5.274-6.177-11.737.403-2.612.951-5.26 1.679-7.617a27.92 27.92 0 011.266-3.352c.95-2.106 1.16-1.971 1.941-2.195.925 1.945-1.933 1.882-1.923 8.749.013 9.562-.934 8.265 2.561 12.713 2.653 3.376 1.108 1.228 3.496 2.36-.938 1.782-4.116 3.823-5.893 5.257-2.168 1.747-4.122 3.589-6.277 4.805.568 7.29 5.749 12.617 5.865 12.89.647 1.534.252 31.349.252 35.605 0 6.469-1.004 11.64 3.811 14.208 4.948 2.638 10.144-.681 10.731-5.644l.084-53.95c3.962-.088 3.581-.379 4.853 2.972 1.525 4.02 5.749 12.56 6.313 15.339-2.003 2.16-3.671 4.502-5.468 6.833-3.49 4.523-4.384 4.188-4.375 8.277l.01 15.647c0 10.262-1.213 7.363-3.183 11.243 2.696-.441 4.27-1.455 5.453-3.205 3.311-4.9-2.254-3.172 4.496-11.592l14.134-18.085c5.499-7.19 6.027-6.345 1.764-16.475-1.507-3.582-3.19-7.618-4.838-11.262-2.593-5.736-1.858-7.271-1.858-14.13 0-5.196-.086-10.465.018-15.65 1.387 1.121 2.465 3.57 3.99 5.539 2.04 2.633 3.413 2.26 7.38 1.814 5.508-.618 11.693-.96 17.053-1.82 6.734-1.08 5.846-9.375-.473-9.427-5.266-.043-11.949 1.541-17.504 1.747-2.077-2.077-7.322-11.002-10.076-14.922-1.455-2.07-2.521-2.41-6.021-2.408l-19.316-.002c-18.64 0-21.092 27.632-18.631 33.065 1.765 3.897 5.27 6.57 7.293 10.082 1.851-.773 6.033-4.323 7.57-5.672zm-83.714-22.494c4.595 2.59 3.473 9.378-1.819 10.376-4.867.918-11.305.2-16.301 1.152-.12 7.099.023 13.513-.544 20.583-.766 9.56-5.136 55.062-4.022 58.223 1.944 5.516 9.714 6.382 12.916 1.386 1.831-2.858 2.027-13.996 2.366-18.192 1.013-12.54 1.575-26.498 3.215-38.914l4.017.07c2.096 15.38 2.898 35.788 4.29 52.219.964 11.38 15.656 11.193 14.513-1.925-1.22-14.009-2.279-27.851-3.413-41.832-1.619-19.953-1.499-23.979-1.454-43.809 3.053 1.536 4.805 4.21 7.953 5.742l2.397-9.78c-3.388-2.904-6.565-5.195-10.022-8.016-4.068-3.319-7.639-2.235-15.831-2.23-6.498.003-12.767-.98-16.22 1.843l-9.888 7.942c1.109 1.515 3.278 2.995 4.844 4.257 2.724 2.194 2.068.92 4.318.716.079-.008.208-.01.291-.01.024-.001.73.134 1.453.198 4.135.37 13.935-1.693 16.941.001z" fill="#00C3B5"/><path fill-rule="evenodd" clip-rule="evenodd" d="M77.512 100.416c1.242.653 2.2.569 3.87.66 19.117 1.037 13.621.578 33.527-.245l-3.802-29.335c-1.084-4.327-3.704-7.607-4.081-12.476-.411-5.301 1.779-10.042 2.69-14.497 2.009.785 4.024 2.84 5.766 4.228 10.485 8.354 7.041 6.102 23.35 5.17 2.562-.147 6.511.317 8.39-1.244 2.347-1.949 1.428-5.74-1.146-6.521-3.114-.946-15.109.988-19.281.755-5.2-.29-11.462-12.575-25.377-14.353-10.34-1.32-14.446 1.906-17.784.677-3.155-1.161-11.491-4.338-14.239-5.989-1.358-5.596-2.071-12.28-3.064-18.226-.447-2.675-.406-6.526-2.818-7.699-3.398-1.651-5.846 1.18-5.493 4.57.613 5.886 2.113 12.778 3.057 18.681 1.713 10.716.26 7.931 17.334 14.772 3.906 1.565 3.293 2.608 4.581 6.468 5.377 16.106.43 17.481-1.638 25.633l-3.842 28.971zM181.198 60.02c-1.408 6.564-4.016 9.135-4.777 16.31-.693 6.53-1.322 12.727-2.003 19.255-.67 6.422-1.318 12.699-1.989 19.124-.617 5.904-1.867 13.634-1.988 19.322-.159 7.53 9.121 8.325 11.287 2.861.855-2.159 3.718-33.158 4.241-38.198.367-3.531.138-14.802 6.18-14.559 5.581.225 5.319 9.615 5.934 15.378.533 4.998 3.252 35.778 4.426 37.944 2.668 4.92 11.374 3.923 11.002-3.894-.695-14.594-4.294-40.848-6.003-57.721-.663-6.553-3.469-9.71-4.761-15.899-8.565-2.195-12.922-2.352-21.549.076z" fill="#00C3B5"/><path fill-rule="evenodd" clip-rule="evenodd" d="M178.821 49.99c1.484-1.76 15.169-2.43 20.242-1.542 4.414.772 3.623 1.507 5.813.44l.256 2.303c-6.523-1.144-9.732-2.556-17.44-1.763-2.977.306-5.684.877-5.377 4.5.299 3.525 3.462 3.454 6.63 3.147 5.738-.558 12.142.373 16.667 2.732 7.559 3.943 8.277-.67 7.448-8.012-1.491-13.217-4.111-18.442-19.497-19.059-12.59-.504-5.086 2.01-9.39 9.978-2.415 4.473-6.345 6.078-12.73 5.184-.39 3.53-2.151 10.697.695 12.726 2.906 2.072 7.19-1.755 10.996-2.477-1.584-2.858-3.21-2.74-1.482-7.561-3.482.644-2.506.486-2.831-.596zM138 17.634l3.117-.13 6.899.022 4.554.033c-2.95 5.634-12.283 5.26-14.57.075zM141.806.588c-17.382 5.146-9.318 30.464 7.311 25.408 5.796-1.762 11.142-8.247 8.961-16.206-1.697-6.187-8.304-11.56-16.272-9.202zm-92.21 16.065c-1.138 2.55-4.271 4.695-8.262 4.61-3.163-.066-6.597-1.928-7.744-4.598l16.006-.012zM38.62.427C21.1 4.968 28.056 30.349 44.857 26.205c6.244-1.54 11.642-8.13 9.592-16.251-1.5-5.948-7.95-11.569-15.828-9.527zm52.92 20.93c6.954-.491 7.743-.571 13.11-3.173-.411 2.428-2.917 5.278-5.273 5.97-3.264.96-6.42-1.02-7.837-2.797zm.98-16.723c-16.524 5.444-7.956 29.346 7.772 24.064 5.548-1.863 10.255-7.993 8.105-15.643-1.618-5.76-8.354-10.9-15.877-8.421zm92.17 16.098l14.573-.035c-1.168 2.25-3.527 4.15-7.107 4.213a8.708 8.708 0 01-4.392-1.076c-2.126-1.156-1.797-1.751-3.074-3.102zm3.794-15.746c-16.165 5.04-9.013 28.896 7.153 24.328 5.49-1.551 10.712-7.91 8.592-15.494-1.601-5.73-7.883-11.285-15.745-8.834zm-85.49 98.316c-.384 4.143 1.437 15.922 1.948 20.821.686 6.57-.2 15.994 7.171 15.825 7.934-.182 5.288-10.129 4.627-16.515-.449-4.332-1.253-17.464-2.306-20.813l-11.44.682zm-25.157-.483c-.535 6.993-1.423 13.923-2.15 20.901-.688 6.61-3.198 16.568 5.145 16.231 6.897-.28 6.072-9.824 6.725-16.135.528-5.102 2.26-16.05 1.921-20.493l-11.641-.504zm157.817-84.01c6.051.277 6.76-.006 11.773-1.6-.784 1.954-2.992 4.329-5.304 4.737-1.463.258-2.811-.134-3.926-.711l-2.543-2.426zm-4.955-4.997c1.313 19.404 29.187 14.399 26.28-1.752l-7.772-.837c-1.087 2.371-1.715 4.442-5.058 4.23-4.082-.258-3.313-3.099-4.611-5.088-2.449.035-.887-.788-1.814 1.185-.485.95-.273.887-1.371 1.918-1.758 1.513-3.821.882-5.654.344zm2.86-7.655c2.066.984 3.116 1.656 3.576 2.247.755.97.443 1.279 1.483 1.507 3.652.172 1.14-.784 3.998-2.08 1.807-.819 3.653-.327 4.76.612 2.417 2.05-.061 2.107 3.456 2.59 1.658.227 4.129.335 5.961.465-2.494-13.195-19.504-12.637-23.234-5.34z" fill="#00C3B5"/><path fill-rule="evenodd" clip-rule="evenodd" d="M171.443 45.654c.42.703-.227.664 1.574 1.24.771.246 1.723.254 2.568.186 4.09-.33 7.47-3.688 8.425-7.724.377-1.593 1.01-8.31.617-9.682l-4.878-5.45c-2.921 2.34-2.239 8.58-2.393 12.676-.3 8.003-3.07 7.573-5.913 8.754zM81.654 30.663c4.2 1.203 2.25 1.633 7.212.436.332-3.032-.156-2.467-1.923-3.949-1.479-1.24-1.748-2.423-3.262-3.54-.892 2.06-1.783 4.196-2.027 7.053zm27.408 23.681c2.721.086 6.411-.416 8.609-1.208-.606-.954-.484-.832-1.603-1.748l-3.576-2.84c-.18-.134-.643-.468-.836-.595-.753-.49.057-.053-1.011-.577l-1.583 6.968z" fill="#00C3B5"/></svg>