<svg width="156" height="117" fill="none" xmlns="http://www.w3.org/2000/svg"><path fill-rule="evenodd" clip-rule="evenodd" d="M.269 26.04c.093.71-.2.711-.26 1.177-.068.536.28.533.24 1.273-.081 1.589 4.282 4.203 5.649 5.06 4.885 3.063 10.38 5.103 16.45 5.025 4.632-.06 8.018-1.812 8.799-1.863l-1.324 9.355c-.78 4.536-1.366 9.247-2.05 13.814-.547 3.646-2.221 8.893-3.107 12.655l-4.298 16.8c-1.536 5.618-2.757 11.217-4.27 16.871-.397 1.48-.904 2.758-.79 4.526.093 1.46.862 2.835 1.613 3.683 1.719 1.942 4.812 2.829 7.68 1.354 2.752-1.416 2.959-3.389 3.867-6.693.8-2.91 1.418-5.563 2.142-8.424.71-2.807 1.448-5.634 2.14-8.428.692-2.793 1.566-5.641 2.154-8.333l4.251-16.852c.5-.07 2.71.237 3.082.408.188 1.627.044 36.49.044 38.058 0 3.351-.433 5.998 1.18 8.344 2.927 4.259 9.927 3.29 11.37-2.267.357-1.378.124-7.474.124-9.326V73.713c0-2.686-.225-6.81.18-9.231.889-5.312 1.63-11.016 2.458-16.52l1.537-10.415c.178-1.24-.076-.965.68-1.635l2.136-2.462c-.735-.722-2.155-1.698-3.064-2.338-.55-.387-2.929-1.736-3.296-2.218 1.443.148 5.459 2.646 6.511 3.397.454.325.927.69 1.392 1.054.75.585.854.416.843 1.611a433.074 433.074 0 00-.014 4.876v68.459c0 1.689-.116 3.047.454 4.419 1.545 3.723 6.06 5.319 9.45 2.945 2.528-1.768 2.817-3.868 2.816-6.9-.001-6.487-.076-13.012-.005-19.493.068-6.162-.203-13.718.009-19.552l2.354.03c.103 2.888.037 6.056.01 8.963-.084 8.893 0 17.793.003 26.687.001 2.902-.365 6.032.805 8.106.95 1.683 2.943 3.282 5.657 3.257 2.6-.024 4.609-1.666 5.507-3.418 1.13-2.207.731-5.521.731-8.061l.034-71.243c1.102-1.191 6.891-4.973 8.705-5.133l-1.529 1.056c-1.152.706-4.147 2.599-4.784 3.496l2.216 2.57c.588.51.494.948.6 1.836.08.675.198 1.41.295 2.01.893 5.53 1.623 11.099 2.434 16.643.387 2.642.848 5.45 1.211 8.16.357 2.658.152 6.542.153 9.392l.001 28.312c-.002 2.003-.236 7.792.186 9.293 1.559 5.551 8.634 6.467 11.485 1.958 1.466-2.319 1.04-5.241 1.041-8.35 0-1.638-.145-36.167.043-37.826.411-.185 2.375-.43 2.968-.397.105.158.036.022.14.269.409.976 1.719 6.816 2.095 8.078.397 1.332.732 2.899 1.082 4.248l5.329 21.05c.695 2.73 1.424 5.68 2.151 8.39.852 3.176 1.074 5.217 3.883 6.684 2.864 1.494 5.917.594 7.666-1.352 2.248-2.502 1.758-4.903.845-8.095-.778-2.72-1.45-5.627-2.129-8.456-.661-2.758-1.431-5.606-2.153-8.363-2.188-8.353-4.174-16.888-6.439-25.23-.863-3.177-1.111-5.79-1.649-8.927-.507-2.957-.785-6.334-1.357-9.186l-1.305-9.427c.672.118 1.426.5 2.103.716 4.983 1.593 10.817 1.347 15.591-.304 3.782-1.308 7.071-3.176 10.219-5.413.868-.616 1.767-1.273 2.449-2.07l.311-.314v-4c-.333-.236-.525-.679-.959-1.036-2.719-2.235-5.153.109-6.832 1.332a27.44 27.44 0 01-2.329 1.506c-1.591.923-3.337 1.87-5.261 2.499-3.271 1.07-3.591.848-6.718 1.057-.554 1.1-.617 2.207-2.453 3.228-3.272 1.82-5.742-.64-8.002-2.238l-3.105-2.245c-.137-.136-.07-.059-.18-.214 1.804.145 6.113 3.418 7.227 3.959 3.036 1.473 6.392-1.407 5.452-4.637-.445-1.533-1.472-2.156-2.64-2.924-1.14-.75-2.181-1.417-3.481-2.097-1.777-.93-5.951-2.94-7.772-3.148-.278.444-.508 1.116-.794 1.624-.862 1.531-1.719 2.68-3.15 3.815-1.585 1.258-4.087 2.49-6.528 2.69-4.043.33-7.626-1.07-10.201-3.657-1.34-1.346-1.428-1.883-1.957-2.464l-.13-.124c-.59.132-1.881.984-2.269.9-.145-.03-4.792-2.867-6.717-2.89-.62.93-2.58 2.204-3.772 2.721-3.505 1.52-7.014 1.544-10.51-.038-1.13-.512-3.054-1.754-3.678-2.684-1.225.01-3.748 1.285-4.709 1.785-.352.183-1.926 1.103-2.098 1.118-.316.027-1.647-.79-2.182-.912l-.574.74c-4.782 7.413-16.753 7.669-21.442-1.05-.313-.584-.47-1.112-.747-1.573-.913.093-3.2 1.03-4.094 1.381-2.46.965-5.074 2.468-7.229 3.907-1.084.724-2.198 1.392-2.576 2.858-.88 3.407 2.456 6.071 5.465 4.658.543-.255 1.098-.717 1.681-1.095 1.206-.78 4.233-2.668 5.462-2.868-.29.573-4.168 3.142-4.979 3.7-.544.373-1.014.77-1.667 1.114-1.462.767-3.31.583-4.63-.154-1.347-.752-1.791-1.61-2.385-3.187-2.93-.19-4.451-.202-6.988-1.141-5.766-2.135-8.871-5.36-10.145-5.852-1.09-.42-2.446-.341-3.395.173-.605.329-1.698 1.299-1.74 2.154z" fill="#00C3B5"/><path fill-rule="evenodd" clip-rule="evenodd" d="M118.604 17.438c.561-3.533-.942-6.867-2.582-8.833-1.711-2.053-4.195-3.607-7.376-4.063-6.732-.966-12.284 4.381-12.971 9.904-.853 6.853 4.165 12.352 10.002 13.018 6.81.776 11.905-3.587 12.927-10.026zM89.587 13.61C90.827 7.6 86.64 1.394 80.159.19c-6.696-1.246-12.512 3.853-13.3 9.362-.552 3.866.388 6.743 2.243 9.126 5.823 7.48 18.33 5.376 20.485-5.069zm-51.802 3.712c.816 5.961 5.862 10.913 12.84 10.175 5.71-.603 10.943-6.036 10.146-12.664C59.531 4.518 47.046.953 40.467 8.54c-1.61 1.855-3.154 5.336-2.682 8.783z" fill="#00C3B5"/></svg>