<svg width="42" height="42" fill="none" xmlns="http://www.w3.org/2000/svg"><path d="M31.72 28.345l.29-.46A12.959 12.959 0 0034 20.998c0-7.17-5.83-13-13-13S8 13.83 8 21s5.83 13 13 13c2.915 0 5.68-.955 7.99-2.76l.41-.32 3.445.67-1.125-3.244z" stroke="#fff" stroke-miterlimit="10"/><circle cx="21" cy="21" r="20.5" transform="rotate(-90 21 21)" stroke="#fff"/><path d="M19.02 20.34a.517.517 0 10.996.283 2.344 2.344 0 011.607-1.605.518.518 0 00-.281-.998 3.387 3.387 0 00-2.322 2.32zM22 15.6a.6.6 0 00-.761-.578 7.612 7.612 0 00-5.216 5.214.6.6 0 101.152.328 6.404 6.404 0 014.389-4.387A.6.6 0 0022 15.6zm-8.98 3.724a.53.53 0 101.02.29 9.595 9.595 0 016.574-6.573.53.53 0 00-.287-1.021c-3.509.992-6.308 3.79-7.306 7.304z" fill="#fff"/><path d="M16.573 28.576s-1.447-.821-1.53-1.492c-.083-.67-.083-1.533.36-1.767.44-.234 3.007-1.272 3.007-1.272s.443-.179.869.097c.43.275 1.05.89 1.05.89s.444.345.91 0c.468-.344 1.333-.872 2.438-1.974 1.105-1.097 1.896-3.204 1.896-3.204s.042-.303-.152-.492c-.195-.192-1.503-1.235-1.503-1.235s-.435-.335-.18-.89c.253-.556 1.46-2.957 1.46-2.957s.102-.28.532-.28c.43 0 1.476.17 1.827.523.356.35 1.443 1.378 1.443 2.92 0 1.543-1.262 5.22-3.237 7.18-1.975 1.961-3.973 3.701-5.795 4.11-1.822.404-2.645.348-3.395-.157z" fill="#fff"/></svg>