<svg width="41" height="41" fill="none" xmlns="http://www.w3.org/2000/svg"><circle cx="20.462" cy="20.462" r="19.962" transform="rotate(-90 20.462 20.462)" stroke="#fff"/><path d="M12.345 12.362l6.03 17.037c.585 1.652 1.584 1.377 2.01 1.032.167-.344.603-1.445 1.005-3.097.402-1.652-.168-2.753-.503-3.098-1.507-2.581-1.507-2.581-4.02-6.711-1.429-2.35-.167-1.721.503-1.033l5.025 5.163c.804.826 1.675.344 2.01 0 1.005-1.549 2.512-3.098 4.02-5.679 1.113-1.907-.335-2.581-1.005-2.581-4.02-.86-12.462-2.685-14.07-3.098-1.608-.413-1.34 1.205-1.005 2.065z" fill="#fff"/></svg>