<svg class="circle-color" width="42" height="42" fill="none" xmlns="http://www.w3.org/2000/svg"><path d="M31.72 28.345l.29-.46A12.959 12.959 0 0034 21c0-7.17-5.83-13-13-13S8 13.83 8 21s5.83 13 13 13c2.915 0 5.68-.955 7.99-2.76l.41-.32 3.445.67-1.125-3.245z" stroke="#fff" stroke-miterlimit="10"/><path d="M14.686 28.548s-1.551-.876-1.64-1.591c-.09-.715-.09-1.636.386-1.886.471-.25 3.221-1.356 3.221-1.356s.476-.191.932.103c.46.293 1.124.95 1.124.95s.476.367.977 0c.5-.368 1.427-.93 2.61-2.106 1.185-1.17 2.032-3.418 2.032-3.418s.045-.323-.163-.524c-.208-.206-1.61-1.317-1.61-1.317s-.466-.358-.194-.95c.273-.593 1.566-3.154 1.566-3.154s.109-.299.57-.299c.46 0 1.58.181 1.957.558.382.372 1.546 1.47 1.546 3.115 0 1.645-1.353 5.568-3.468 7.659-2.116 2.09-4.257 3.947-6.21 4.383-1.951.43-2.833.372-3.636-.167z" fill="#fff"/><circle cx="21" cy="21" r="20.5" transform="rotate(-90 21 21)" stroke="#fff"/></svg>