<svg width="42" height="42" fill="none" xmlns="http://www.w3.org/2000/svg"><circle cx="20.881" cy="20.881" r="20.381" transform="rotate(-90 20.881 20.881)" stroke="#fff"/><path d="M10 29.143c0 1.44 1.179 2.62 2.619 2.62h16.762A2.627 2.627 0 0032 29.142v-16.76c0-1.44-1.179-2.62-2.619-2.62H12.619A2.627 2.627 0 0010 12.382v16.761zm1.048 0V12.382c0-.874.697-1.572 1.571-1.572h16.762c.874 0 1.571.697 1.571 1.572v16.761c0 .874-.697 1.572-1.571 1.572H12.619a1.564 1.564 0 01-1.571-1.572zM12.095 26c.53-.216 2.819-1.258 3.664-1.57h2.098v-1.05h-2.095l-3.667-1.57v1.256l2.095.838-2.095.838V26zm1.572-5.238c0 .527.144.928.495 1.222.26.227.675.349 1.223.349h.757c.546 0 .923-.107 1.18-.334.35-.294.535-.77.535-1.237 0-.465-.185-.95-.536-1.246-.257-.223-.633-.325-1.179-.325h-.76c-.549 0-.96.127-1.22.35-.351.294-.495.756-.495 1.221zm0-2.095h3.058c.345 0 .58-.051.731-.125.248-.12.375-.361.386-.708.016-.477-.294-.835-.705-1.262h.72v-1.048h-4.19v1.048h2.815c.283.238.533.513.533.728 0 .143-.066.293-.206.32h-3.142v1.047zm.848 2.095a.53.53 0 01.535-.523h1.47a.53.53 0 01.535.523.53.53 0 01-.535.524h-1.47a.53.53 0 01-.535-.524zm4.914.006s0 3.514.167 5.86c.037.33.042 1.044.697 1.683.492.503 1.624.665 1.624.665s.801.167 2.127.167h1.24c1.326 0 2.128-.167 2.128-.167s1.13-.162 1.628-.665c.65-.64.629-1.477.697-1.85.126-1.34.168-5.699.168-5.699s-.006-3.52-.173-5.866c-.037-.33-.042-1.043-.697-1.682-.492-.503-1.623-.665-1.623-.665s-.802-.167-2.127-.167h-1.241c-1.326 0-2.127.167-2.127.167s-1.132.162-1.624.665c-.655.64-.66 1.352-.697 1.682-.167 2.347-.167 5.861-.167 5.861v.01zm2.095 6.804v-3.143h1.047v1.048h5.238v1.047h-5.238v1.048h-1.047zm0-6.81v-1.047h2.294c-.46-.393-.728-.602-.723-1.11.006-.398.231-.718.64-.85.22-.067.613-.135 1.131-.135h1.44c.462.005.666.052.886.115.408.131.617.472.617.87 0 .35-.246.78-.654 1.11h.654v1.047h-6.285zm1.571 3.667v-1.047h3.61c.152-.027.208-.136.208-.273 0-.21-.23-.545-.534-.775h-3.284v-1.048h4.715v1.048h-.718c.45.414.718.907.718 1.289 0 .335-.147.57-.414.685-.167.069-.42.121-.797.121h-3.504zm0-8.92c0-.519.168-.932.482-1.22.23-.215.587-.336 1.08-.336h1.057v2.095h.944c.24 0 .44-.236.44-.524 0-.288-.2-.523-.44-.523h-.42v-1.048c.267 0 .492.032.576.037.183.036.352.12.498.245.336.283.497.708.497 1.247 0 .545-.157.954-.471 1.253-.225.22-.57.36-1.058.36h-1.603c-.492 0-.87-.125-1.1-.35-.314-.299-.482-.707-.482-1.236zm.76.015c0 .288.193.524.44.524h.69v-1.047h-.69c-.247 0-.44.235-.44.523zm.157 3.551c0 .082.04.2.102.319.031.059.067.118.106.174.038.055.08.105.122.147h2.289a.803.803 0 00.114-.148c.102-.165.163-.37.163-.492 0-.106-.026-.189-.088-.252a.344.344 0 00-.075-.058.689.689 0 00-.228-.073 2.103 2.103 0 00-.348-.025h-1.434c-.137 0-.252.009-.346.025-.187.032-.292.097-.341.2a.418.418 0 00-.036.183z" fill="#fff"/></svg>