<svg width="42" height="42" fill="none" xmlns="http://www.w3.org/2000/svg"><circle cx="21" cy="21" r="20.5" transform="rotate(-90 21 21)" stroke="#fff"/><path d="M20.092 22.49a3.07 3.07 0 00-1.144-1.348 3.008 3.008 0 00-1.676-.497 2.92 2.92 0 00-1.52.402 3.354 3.354 0 00-1.087 1.008 3.44 3.44 0 00-.536 1.37c-.086.511-.129 1.286-.129 2.325V31h13v-4.47c-.012-1.69-.042-2.756-.09-3.198-.076-.704-.282-1.297-.615-1.778a3.483 3.483 0 00-1.34-1.138A3.83 3.83 0 0023.232 20c-.751 0-1.404.215-1.96.645-.555.43-.948 1.045-1.179 1.845zm-3.928 5.859v-1.523c0-1.248.014-2.004.044-2.267.053-.442.206-.775.456-.998.252-.224.578-.336.98-.336.42 0 .759.13 1.016.39s.412.616.465 1.07c.03.25.045.893.045 1.926v1.738h-3.006zm8.047-5.237c.275.248.447.57.519.963.053.258.08.864.08 1.819v2.455h-3.476v-2.141c0-1.206.061-1.99.185-2.352.125-.36.323-.637.594-.828.272-.191.604-.287.994-.287.46 0 .829.124 1.104.371zM18.41 11.19c-.94.83-1.41 1.96-1.41 3.393 0 1.276.45 2.331 1.347 3.166.898.834 2.14 1.251 3.725 1.251 1.327 0 2.427-.317 3.297-.953C26.457 17.244 27 16.004 27 14.33c0-1.058-.242-1.94-.725-2.644-.483-.704-1.482-1.606-2.367-1.623l.016 2.616c.48.14.643.345.86.616.216.273.324.608.324 1.008 0 .586-.209 1.076-.626 1.469-.418.393-1.002.598-1.752.616v-6.385c-1.94-.035-3.38.36-4.32 1.189zm2.77 5.153c-.69.006-1.237-.172-1.64-.535a1.776 1.776 0 01-.603-1.38c0-.519.19-.96.572-1.323.381-.363.939-.553 1.67-.572v3.81zM15 12v5h1v-5h-1z" fill="#fff"/></svg>