<svg width="42" height="42" fill="none" xmlns="http://www.w3.org/2000/svg"><circle cx="20.881" cy="20.901" r="20.381" transform="rotate(-90 20.881 20.901)" stroke="#fff"/><path fill-rule="evenodd" clip-rule="evenodd" d="M30.772 14.235v12.6c0 2.185-1.79 3.957-3.997 3.957H14.988c-2.207 0-3.998-1.772-3.998-3.956V14.235c0-2.185 1.79-3.957 3.998-3.957h11.79c2.207.002 3.994 1.772 3.994 3.957zm-4.396 6.3c0 3.233-2.466 5.861-5.495 5.861-3.031 0-5.495-2.628-5.495-5.861 0-3.231 2.464-5.862 5.495-5.862 3.029 0 5.495 2.631 5.495 5.862zM16.12 14.307c0-.608-.491-1.1-1.1-1.1a1.1 1.1 0 101.099 1.1z" fill="#fff"/></svg>