<svg width="50" height="48" fill="none" xmlns="http://www.w3.org/2000/svg"><path d="M31.283 38.123H18.37c-1.474 0-1.983.703-2.157 1.12-.173.418-.308 1.272.735 2.313l5.384 5.388a3.502 3.502 0 002.497 1.032c.945 0 1.829-.367 2.493-1.032l5.384-5.389c1.048-1.045.913-1.899.74-2.316-.17-.416-.683-1.116-2.162-1.116zm.103 2.109l-5.384 5.389c-.624.618-1.726.618-2.345 0l-5.388-5.39c-.085-.08-.142-.155-.192-.218.08-.01.178-.021.294-.021h12.914c.121 0 .22.011.295.02-.053.062-.114.14-.194.22zM47.974 21.47l-5.393-5.385c-.566-.566-1.141-.854-1.716-.854-.79 0-1.712.594-1.712 2.276v12.921c0 1.68.922 2.278 1.712 2.278.575 0 1.15-.287 1.716-.856l5.393-5.386a3.507 3.507 0 001.03-2.497 3.51 3.51 0 00-1.03-2.497zm-1.323 3.668l-5.39 5.386a1.739 1.739 0 01-.223.197 2.557 2.557 0 01-.013-.295V17.505c0-.119.004-.215.013-.292.066.047.14.11.224.194l5.389 5.384c.312.31.481.726.481 1.173 0 .448-.169.863-.481 1.174zM18.54 9.81h12.914c1.479 0 1.992-.695 2.161-1.109.174-.42.308-1.273-.74-2.319L27.493.998c-1.324-1.33-3.661-1.33-4.99 0l-5.384 5.384c-1.043 1.041-.908 1.897-.735 2.315.174.418.68 1.114 2.157 1.114zm-.103-2.106l5.389-5.384c.619-.621 1.721-.621 2.344 0l5.384 5.384c.08.084.142.157.192.221a2.016 2.016 0 01-.294.019H18.538a2.11 2.11 0 01-.295-.019c.05-.064.11-.137.194-.221zM8.13 15c-.575 0-1.15.288-1.716.854l-5.385 5.384A3.493 3.493 0 000 23.735c0 .947.36 1.83 1.03 2.497l5.384 5.387c.566.568 1.14.856 1.716.856.562 0 1.066-.295 1.37-.799.232-.383.347-.881.347-1.48v-12.92C9.847 15.59 8.917 15 8.13 15zm-.157 15.197c0 .12-.01.219-.019.294a1.704 1.704 0 01-.219-.196l-5.384-5.387a1.66 1.66 0 010-2.344l5.384-5.384a1.89 1.89 0 01.22-.194c.008.077.018.173.018.292v12.919zM25 13.979c-5.51 0-9.991 4.482-9.991 9.995 0 5.512 4.48 9.99 9.99 9.99 5.506 0 9.986-4.478 9.986-9.99 0-5.513-4.48-9.995-9.986-9.995zm0 18.11c-4.481 0-8.124-3.642-8.124-8.118 0-4.48 3.643-8.125 8.123-8.125 4.476 0 8.119 3.645 8.119 8.125-.002 4.479-3.643 8.119-8.119 8.119z" fill="#00C3B5"/></svg>