<svg width="1920" height="879" fill="none" xmlns="http://www.w3.org/2000/svg"><rect x="36.98" y="-320" width="842.983" height="855.11" rx="113" transform="rotate(48.151 36.98 -320)" fill="#fff"/><path d="M807.022 563l-6.36 11.78c-.453.84-.987 1.467-1.6 1.88-.6.4-1.26.6-1.98.6-.533 0-1.107-.126-1.72-.38l.42-1.2c.48.187.92.28 1.32.28.92 0 1.673-.5 2.26-1.5l.4-.68-5.68-10.78h1.58l4.88 9.48 5-9.48h1.48zm8.596 6.68c.92.227 1.64.64 2.16 1.24.533.6.8 1.32.8 2.16 0 .814-.254 1.527-.76 2.14-.507.614-1.18 1.087-2.02 1.42-.84.32-1.754.48-2.74.48a8.889 8.889 0 01-2.76-.44 7.585 7.585 0 01-2.42-1.36l.54-1.06c.613.52 1.313.92 2.1 1.2.786.267 1.58.4 2.38.4.76 0 1.46-.12 2.1-.36.64-.24 1.146-.58 1.52-1.02a2.39 2.39 0 00.58-1.6c0-.813-.32-1.44-.96-1.88-.64-.44-1.54-.66-2.7-.66h-3v-1.2h2.92c.986 0 1.753-.206 2.3-.62.56-.426.84-1.013.84-1.76 0-.826-.354-1.473-1.06-1.94-.707-.48-1.594-.72-2.66-.72-.667 0-1.34.1-2.02.3a7.218 7.218 0 00-1.94.86l-.5-1.22a8.636 8.636 0 014.5-1.24c.946 0 1.813.154 2.6.46.786.307 1.406.747 1.86 1.32.466.574.7 1.247.7 2.02 0 .747-.207 1.394-.62 1.94-.414.534-.994.914-1.74 1.14zm18.335-6.68v14h-1.46v-6.46h-8.76V577h-1.48v-14h1.48v6.24h8.76V563h1.46zm13.685 10.26h-7.8l-1.68 3.74h-1.54l6.4-14h1.46l6.4 14h-1.56l-1.68-3.74zm-.54-1.2l-3.36-7.52-3.36 7.52h6.72zm6.463-9.06h1.46v11.6l8.96-11.6h1.34v14h-1.46v-11.58l-8.96 11.58h-1.34v-14zm5.84-1.02c-1 0-1.793-.226-2.38-.68-.573-.453-.866-1.086-.88-1.9h1.1c.014.534.214.954.6 1.26.387.307.907.46 1.56.46.64 0 1.154-.153 1.54-.46.4-.306.607-.726.62-1.26h1.1c-.013.814-.313 1.447-.9 1.9-.586.454-1.373.68-2.36.68zm19.805 2.3h-4.92V577h-1.46v-12.72h-4.92V563h11.3v1.28zm12.497 11.44V577h-9.9v-14h9.6v1.28h-8.12v4.98h7.24v1.26h-7.24v5.2h8.42zm14.638 1.44c4.26 0 7.42-3.04 7.42-7.16s-3.16-7.16-7.42-7.16c-4.3 0-7.46 3.06-7.46 7.16s3.16 7.16 7.46 7.16zm0-1.78c-3.14 0-5.46-2.28-5.46-5.38s2.32-5.38 5.46-5.38c3.1 0 5.42 2.28 5.42 5.38s-2.32 5.38-5.42 5.38zM932.406 563v6.02h-8.04V563h-2v14h2v-6.24h8.04V577h2v-14h-2zm17.006 14h2.1l-6.36-14h-1.98l-6.34 14h2.06l1.54-3.5h7.44l1.54 3.5zm-8.28-5.1l3.02-6.86 3.02 6.86h-6.04zm18.861 5.26c2.18 0 4.06-.76 5.34-2.2l-1.3-1.26c-1.08 1.14-2.4 1.68-3.94 1.68-3.16 0-5.5-2.28-5.5-5.38s2.34-5.38 5.5-5.38c1.54 0 2.86.52 3.94 1.66l1.3-1.26c-1.28-1.44-3.16-2.18-5.32-2.18-4.26 0-7.42 3.02-7.42 7.16 0 4.14 3.16 7.16 7.4 7.16zm19.59-7.48c.92.227 1.64.64 2.16 1.24.533.6.8 1.32.8 2.16 0 .814-.254 1.527-.76 2.14-.507.614-1.18 1.087-2.02 1.42-.84.32-1.754.48-2.74.48a8.889 8.889 0 01-2.76-.44 7.585 7.585 0 01-2.42-1.36l.54-1.06c.613.52 1.313.92 2.1 1.2.786.267 1.58.4 2.38.4.76 0 1.46-.12 2.1-.36.64-.24 1.146-.58 1.52-1.02a2.39 2.39 0 00.58-1.6c0-.813-.32-1.44-.96-1.88-.64-.44-1.54-.66-2.7-.66h-3v-1.2h2.92c.986 0 1.753-.206 2.3-.62.56-.426.84-1.013.84-1.76 0-.826-.354-1.473-1.06-1.94-.707-.48-1.594-.72-2.66-.72-.667 0-1.34.1-2.02.3a7.218 7.218 0 00-1.94.86l-.5-1.22a8.636 8.636 0 014.5-1.24c.946 0 1.813.154 2.6.46.786.307 1.406.747 1.86 1.32.466.574.7 1.247.7 2.02 0 .747-.207 1.394-.62 1.94-.414.534-.994.914-1.74 1.14zm15.594 3.58h-7.8l-1.68 3.74h-1.54l6.4-14h1.46l6.4 14h-1.56l-1.68-3.74zm-.54-1.2l-3.36-7.52-3.36 7.52h6.72zm21.413-3.44c.92 0 1.73.174 2.44.52.72.347 1.28.84 1.68 1.48.4.627.6 1.36.6 2.2 0 .854-.21 1.607-.62 2.26-.41.654-.99 1.16-1.72 1.52-.72.347-1.53.52-2.44.52-1.85 0-3.27-.606-4.26-1.82-.99-1.226-1.48-2.953-1.48-5.18 0-1.56.27-2.88.8-3.96s1.28-1.893 2.24-2.44c.96-.56 2.08-.84 3.36-.84 1.39 0 2.49.254 3.32.76l-.58 1.16c-.67-.44-1.57-.66-2.72-.66-1.55 0-2.76.494-3.64 1.48-.88.974-1.32 2.394-1.32 4.26 0 .334.02.714.06 1.14.35-.76.9-1.346 1.66-1.76.76-.426 1.63-.64 2.62-.64zm-.12 7.28c1.01 0 1.83-.273 2.46-.82.64-.56.96-1.3.96-2.22 0-.92-.32-1.653-.96-2.2-.63-.546-1.48-.82-2.56-.82-.71 0-1.33.134-1.88.4a3.22 3.22 0 00-1.26 1.1c-.31.467-.46.987-.46 1.56 0 .534.14 1.027.42 1.48.29.454.72.82 1.28 1.1.56.28 1.23.42 2 .42zm12.09 1.22c-1.08 0-2.05-.286-2.9-.86-.84-.573-1.5-1.393-1.98-2.46-.47-1.08-.7-2.346-.7-3.8 0-1.453.23-2.713.7-3.78.48-1.08 1.14-1.906 1.98-2.48.85-.573 1.82-.86 2.9-.86 1.08 0 2.04.287 2.88.86.85.574 1.52 1.4 2 2.48.48 1.067.72 2.327.72 3.78 0 1.454-.24 2.72-.72 3.8-.48 1.067-1.15 1.887-2 2.46-.84.574-1.8.86-2.88.86zm0-1.32c.81 0 1.52-.226 2.14-.68.62-.453 1.11-1.113 1.46-1.98.34-.866.52-1.913.52-3.14 0-1.226-.18-2.273-.52-3.14-.35-.866-.84-1.526-1.46-1.98-.62-.453-1.33-.68-2.14-.68-.82 0-1.54.227-2.16.68-.62.454-1.1 1.114-1.44 1.98-.35.867-.52 1.914-.52 3.14 0 1.227.17 2.274.52 3.14.34.867.82 1.527 1.44 1.98.62.454 1.34.68 2.16.68zm20.33 1.32c-1.38 0-2.64-.306-3.76-.92a6.894 6.894 0 01-2.62-2.54c-.62-1.093-.94-2.313-.94-3.66 0-1.346.32-2.56.94-3.64a6.775 6.775 0 012.64-2.56c1.12-.613 2.38-.92 3.76-.92 1.04 0 2 .174 2.88.52.88.347 1.63.854 2.24 1.52l-.94.94c-1.09-1.106-2.47-1.66-4.14-1.66-1.1 0-2.11.254-3.02.76-.9.507-1.62 1.2-2.14 2.08-.5.88-.76 1.867-.76 2.96 0 1.094.26 2.08.76 2.96a5.67 5.67 0 002.14 2.08c.91.507 1.92.76 3.02.76 1.68 0 3.06-.56 4.14-1.68l.94.94a6.055 6.055 0 01-2.26 1.54c-.88.347-1.84.52-2.88.52zm18.1-1.4V577h-9.9v-14h9.6v1.28h-8.12v4.98h7.24v1.26h-7.24v5.2h8.42zm7.92-5.14h-3.2V577h-1.44v-14h1.44v6.28h3.2l4.74-6.28h1.6l-5.2 6.8 5.5 7.2h-1.7l-4.94-6.42zm19.94-7.58l-6.36 11.78c-.46.84-.99 1.467-1.6 1.88-.6.4-1.26.6-1.98.6-.54 0-1.11-.126-1.72-.38l.42-1.2c.48.187.92.28 1.32.28.92 0 1.67-.5 2.26-1.5l.4-.68-5.68-10.78h1.58l4.88 9.48 5-9.48h1.48zm14 0v14h-1.46v-6.46h-8.76V577h-1.48v-14h1.48v6.24h8.76V563h1.46zm17.37 12.72v4.42h-1.38V577h-12.22l-.02 3.14h-1.38l.02-4.42h.7c.92-.053 1.56-.78 1.92-2.18.36-1.413.58-3.413.66-6l.16-4.54h9.44v12.72h2.1zm-10.38-8.04c-.07 2.134-.23 3.894-.5 5.28-.25 1.374-.69 2.294-1.3 2.76h8.62v-11.44h-6.7l-.12 3.4zM856.325 605v21h-3.84v-17.7h-10.89V626h-3.84v-21h18.57zm14.562 0c1.82 0 3.4.3 4.74.9 1.36.6 2.4 1.46 3.12 2.58.72 1.12 1.08 2.45 1.08 3.99 0 1.52-.36 2.85-1.08 3.99-.72 1.12-1.76 1.98-3.12 2.58-1.34.6-2.92.9-4.74.9h-4.74V626h-3.9v-21h8.64zm-.18 11.64c1.7 0 2.99-.36 3.87-1.08.88-.72 1.32-1.75 1.32-3.09 0-1.34-.44-2.37-1.32-3.09-.88-.72-2.17-1.08-3.87-1.08h-4.56v8.34h4.56zm22.822 9.66c-2.14 0-4.07-.46-5.79-1.38-1.72-.94-3.07-2.23-4.05-3.87-.98-1.66-1.47-3.51-1.47-5.55s.49-3.88 1.47-5.52c.98-1.66 2.33-2.95 4.05-3.87 1.72-.94 3.65-1.41 5.79-1.41s4.07.47 5.79 1.41c1.72.92 3.07 2.2 4.05 3.84.98 1.64 1.47 3.49 1.47 5.55 0 2.06-.49 3.91-1.47 5.55-.98 1.64-2.33 2.93-4.05 3.87-1.72.92-3.65 1.38-5.79 1.38zm0-3.42c1.4 0 2.66-.31 3.78-.93 1.12-.64 2-1.52 2.64-2.64.64-1.14.96-2.41.96-3.81s-.32-2.66-.96-3.78a6.703 6.703 0 00-2.64-2.64c-1.12-.64-2.38-.96-3.78-.96s-2.66.32-3.78.96c-1.12.62-2 1.5-2.64 2.64-.64 1.12-.96 2.38-.96 3.78s.32 2.67.96 3.81c.64 1.12 1.52 2 2.64 2.64 1.12.62 2.38.93 3.78.93zm34.912 3.12l-.03-13.92-6.9 11.52h-1.74l-6.9-11.34V626h-3.69v-21h3.21l8.31 13.89 8.22-13.89h3.18l.06 21h-3.72zm19.317.3c-2.14 0-4.07-.46-5.79-1.38-1.72-.94-3.07-2.23-4.05-3.87-.98-1.66-1.47-3.51-1.47-5.55s.49-3.88 1.47-5.52c.98-1.66 2.33-2.95 4.05-3.87 1.72-.94 3.65-1.41 5.79-1.41s4.07.47 5.79 1.41c1.72.92 3.07 2.2 4.05 3.84.98 1.64 1.47 3.49 1.47 5.55 0 2.06-.49 3.91-1.47 5.55-.98 1.64-2.33 2.93-4.05 3.87-1.72.92-3.65 1.38-5.79 1.38zm0-3.42c1.4 0 2.66-.31 3.78-.93 1.12-.64 2-1.52 2.64-2.64.64-1.14.96-2.41.96-3.81s-.32-2.66-.96-3.78a6.703 6.703 0 00-2.64-2.64c-1.12-.64-2.38-.96-3.78-.96s-2.66.32-3.78.96c-1.12.62-2 1.5-2.64 2.64-.64 1.12-.96 2.38-.96 3.78s.32 2.67.96 3.81c.64 1.12 1.52 2 2.64 2.64 1.12.62 2.38.93 3.78.93zM980.31 605c1.82 0 3.4.3 4.74.9 1.36.6 2.4 1.46 3.12 2.58.72 1.12 1.08 2.45 1.08 3.99 0 1.52-.36 2.85-1.08 3.99-.72 1.12-1.76 1.98-3.12 2.58-1.34.6-2.92.9-4.74.9h-4.74V626h-3.9v-21h8.64zm-.18 11.64c1.7 0 2.99-.36 3.87-1.08.88-.72 1.32-1.75 1.32-3.09 0-1.34-.44-2.37-1.32-3.09-.88-.72-2.17-1.08-3.87-1.08h-4.56v8.34h4.56zm22.82 9.66c-2.14 0-4.067-.46-5.787-1.38-1.72-.94-3.07-2.23-4.05-3.87-.98-1.66-1.47-3.51-1.47-5.55s.49-3.88 1.47-5.52c.98-1.66 2.33-2.95 4.05-3.87 1.72-.94 3.647-1.41 5.787-1.41s4.07.47 5.79 1.41c1.72.92 3.07 2.2 4.05 3.84.98 1.64 1.47 3.49 1.47 5.55 0 2.06-.49 3.91-1.47 5.55-.98 1.64-2.33 2.93-4.05 3.87-1.72.92-3.65 1.38-5.79 1.38zm0-3.42c1.4 0 2.66-.31 3.78-.93 1.12-.64 2-1.52 2.64-2.64.64-1.14.96-2.41.96-3.81s-.32-2.66-.96-3.78a6.703 6.703 0 00-2.64-2.64c-1.12-.64-2.38-.96-3.78-.96s-2.66.32-3.777.96c-1.12.62-2 1.5-2.64 2.64-.64 1.12-.96 2.38-.96 3.78s.32 2.67.96 3.81c.64 1.12 1.52 2 2.64 2.64 1.117.62 2.377.93 3.777.93zm32.98-17.88v21h-3.84v-17.7h-8.28l-.18 5.25c-.1 2.94-.34 5.33-.72 7.17-.38 1.82-.99 3.21-1.83 4.17-.84.94-2 1.41-3.48 1.41-.52 0-1.23-.1-2.13-.3l.27-3.39c.26.08.56.12.9.12 1.22 0 2.08-.72 2.58-2.16.52-1.46.84-3.75.96-6.87l.3-8.7h15.45zm5.94 0h3.84v14.91l11.28-14.91h3.63v21h-3.84v-14.88L1045.5 626h-3.63v-21zm32.37 12.15h-3.9V626h-3.84v-21h3.84v8.79h4.02l6.03-8.79h4.14l-7.17 10.17 7.44 10.83h-4.41l-6.15-8.85zM834.785 629h250.435v1.5H834.785V629z" fill="#FFC700"/><circle cx="960" cy="671" r="22.25" fill="#FFC700" stroke="#FFC700" stroke-width="1.5"/><path d="M970 671l-15.75 9.527v-19.053L970 671z" fill="#101010"/><path d="M888.361 526v14h-2v-6.24h-8.04V540h-2v-14h2v6.02h8.04V526h2zm14.526 12.26V540h-10.16v-14h9.88v1.74h-7.88v4.3h7.02v1.7h-7.02v4.52h8.16zm12.761-10.52h-4.8V540h-1.96v-12.26h-4.78V526h11.54v1.74zm16.522 5c.946.227 1.66.634 2.14 1.22.493.574.74 1.314.74 2.22 0 1.214-.447 2.154-1.34 2.82-.88.667-2.167 1-3.86 1h-6.4v-14h6.02c1.533 0 2.726.314 3.58.94.866.614 1.3 1.5 1.3 2.66 0 .76-.194 1.407-.58 1.94-.374.534-.907.934-1.6 1.2zm-6.74-.58h3.9c.973 0 1.713-.193 2.22-.58.52-.386.78-.953.78-1.7 0-.746-.26-1.313-.78-1.7-.52-.4-1.26-.6-2.22-.6h-3.9v4.58zm4.38 6.26c2.146 0 3.22-.8 3.22-2.4 0-.8-.274-1.386-.82-1.76-.534-.386-1.334-.58-2.4-.58h-4.38v4.74h4.38zM943.851 526c1.813 0 3.24.434 4.28 1.3 1.04.867 1.56 2.06 1.56 3.58s-.52 2.714-1.56 3.58c-1.04.867-2.467 1.3-4.28 1.3h-3.46V540h-2v-14h5.46zm-.06 8.02c1.267 0 2.233-.266 2.9-.8.667-.546 1-1.326 1-2.34 0-1.013-.333-1.786-1-2.32-.667-.546-1.633-.82-2.9-.82h-3.4v6.28h3.4zm18.842 4.24V540h-10.16v-14h9.88v1.74h-7.88v4.3h7.02v1.7h-7.02v4.52h8.16zm16.121 1.74l-.02-10.2-5.06 8.5h-.92l-5.06-8.44V540h-1.92v-14h1.64l5.84 9.84 5.76-9.84h1.64l.02 14h-1.92zm16.438-1.74V540h-10.16v-14h9.88v1.74h-7.88v4.3h7.02v1.7h-7.02v4.52h8.16zM1010.37 526v14h-2v-6.24h-8.04V540h-1.998v-14h1.998v6.02h8.04V526h2zm4.37 0h1.98v10.8L1025 526h1.84v14h-1.96v-10.78l-8.3 10.78h-1.84v-14zm24.21 9.58c0-.533.09-1 .26-1.4.19-.413.41-.76.66-1.04.27-.28.62-.613 1.04-1 .54-.466.93-.866 1.18-1.2.26-.346.38-.76.38-1.24 0-.653-.25-1.173-.76-1.56-.5-.4-1.2-.6-2.1-.6-1.56 0-2.75.527-3.58 1.58l-1.46-1.04a5.553 5.553 0 012.14-1.66c.88-.386 1.9-.58 3.04-.58 1.46 0 2.61.32 3.46.96.86.627 1.28 1.494 1.28 2.6 0 .547-.09 1.034-.28 1.46-.17.414-.38.76-.64 1.04-.25.28-.59.614-1.02 1-.54.494-.95.927-1.22 1.3-.25.374-.38.834-.38 1.38h-2zm1.02 4.54c-.37 0-.68-.12-.94-.36-.24-.253-.36-.56-.36-.92s.12-.66.36-.9c.26-.253.57-.38.94-.38.38 0 .68.127.92.38.24.24.36.54.36.9s-.12.667-.38.92c-.24.24-.54.36-.9.36z" fill="#fff"/><path d="M1620.99 344.408c29.42 32.243 79.26 34.951 112 6.086L2032.61 86.35c36.07-31.794 36.14-87.99.16-119.88l-59.06-52.34a79.995 79.995 0 00-53.06-20.13H1391.3c-69.52 0-105.96 82.569-59.1 133.924l288.79 316.484z" fill="#00C3B5"/><path d="M1581.46 47.8V115h-12.48V58.264h-14.21V47.8h26.69zm41.36 68.16c-5.38 0-10.18-1.344-14.4-4.032-4.23-2.752-7.55-6.72-9.99-11.904-2.43-5.248-3.64-11.456-3.64-18.624 0-7.168 1.21-13.344 3.64-18.528 2.44-5.248 5.76-9.216 9.99-11.904 4.22-2.752 9.02-4.128 14.4-4.128 5.37 0 10.17 1.376 14.4 4.128 4.29 2.688 7.65 6.656 10.08 11.904 2.43 5.184 3.65 11.36 3.65 18.528 0 7.168-1.22 13.376-3.65 18.624-2.43 5.184-5.79 9.152-10.08 11.904-4.23 2.688-9.03 4.032-14.4 4.032zm0-10.848c4.8 0 8.57-1.984 11.33-5.952 2.81-3.968 4.22-9.888 4.22-17.76 0-7.872-1.41-13.792-4.22-17.76-2.76-3.968-6.53-5.952-11.33-5.952-4.74 0-8.51 1.984-11.33 5.952-2.75 3.968-4.13 9.888-4.13 17.76 0 7.872 1.38 13.792 4.13 17.76 2.82 3.968 6.59 5.952 11.33 5.952zm64.59 10.848c-5.37 0-10.17-1.344-14.4-4.032-4.22-2.752-7.55-6.72-9.98-11.904-2.43-5.248-3.65-11.456-3.65-18.624 0-7.168 1.22-13.344 3.65-18.528 2.43-5.248 5.76-9.216 9.98-11.904 4.23-2.752 9.03-4.128 14.4-4.128 5.38 0 10.18 1.376 14.4 4.128 4.29 2.688 7.65 6.656 10.08 11.904 2.43 5.184 3.65 11.36 3.65 18.528 0 7.168-1.22 13.376-3.65 18.624-2.43 5.184-5.79 9.152-10.08 11.904-4.22 2.688-9.02 4.032-14.4 4.032zm0-10.848c4.8 0 8.58-1.984 11.33-5.952 2.82-3.968 4.22-9.888 4.22-17.76 0-7.872-1.4-13.792-4.22-17.76-2.75-3.968-6.53-5.952-11.33-5.952-4.73 0-8.51 1.984-11.33 5.952-2.75 3.968-4.12 9.888-4.12 17.76 0 7.872 1.37 13.792 4.12 17.76 2.82 3.968 6.6 5.952 11.33 5.952zm51.54-21.12c-4.8 0-8.67-1.696-11.62-5.088-2.94-3.392-4.41-7.84-4.41-13.344s1.47-9.952 4.41-13.344c2.95-3.392 6.82-5.088 11.62-5.088 4.8 0 8.67 1.696 11.62 5.088 3 3.328 4.51 7.776 4.51 13.344s-1.51 10.048-4.51 13.44c-2.95 3.328-6.82 4.992-11.62 4.992zm40.32-36.192h9.41l-45.89 67.2h-9.41l45.89-67.2zm-40.32 29.472c2.62 0 4.64-1.024 6.05-3.072 1.47-2.048 2.21-4.928 2.21-8.64 0-3.712-.74-6.592-2.21-8.64-1.41-2.048-3.43-3.072-6.05-3.072-2.5 0-4.51 1.056-6.05 3.168-1.47 2.048-2.21 4.896-2.21 8.544 0 3.648.74 6.528 2.21 8.64 1.54 2.048 3.55 3.072 6.05 3.072zm44.06 38.4c-4.8 0-8.67-1.696-11.61-5.088-2.95-3.392-4.42-7.84-4.42-13.344s1.47-9.952 4.42-13.344c2.94-3.392 6.81-5.088 11.61-5.088s8.68 1.696 11.62 5.088c3.01 3.392 4.51 7.84 4.51 13.344s-1.5 9.952-4.51 13.344c-2.94 3.392-6.82 5.088-11.62 5.088zm0-6.72c2.56 0 4.58-1.024 6.05-3.072 1.47-2.112 2.21-4.992 2.21-8.64 0-3.648-.74-6.496-2.21-8.544-1.47-2.112-3.49-3.168-6.05-3.168-2.56 0-4.57 1.024-6.04 3.072-1.48 2.048-2.21 4.928-2.21 8.64 0 3.712.73 6.592 2.21 8.64 1.47 2.048 3.48 3.072 6.04 3.072z" fill="#fff" fill-opacity=".2"/><path d="M1611.49 98.2V115h-2.38v-14.712h-3.79V98.2h6.17zm10.54 16.992c-1.33 0-2.51-.336-3.55-1.008-1.03-.688-1.84-1.68-2.43-2.976-.59-1.296-.89-2.832-.89-4.608 0-1.776.3-3.312.89-4.608.59-1.296 1.4-2.28 2.43-2.952 1.04-.688 2.22-1.032 3.55-1.032 1.31 0 2.48.344 3.5 1.032 1.04.672 1.86 1.656 2.45 2.952.59 1.296.89 2.832.89 4.608 0 1.776-.3 3.312-.89 4.608-.59 1.296-1.41 2.288-2.45 2.976-1.02.672-2.19 1.008-3.5 1.008zm0-2.136c1.34 0 2.41-.552 3.21-1.656.82-1.104 1.23-2.704 1.23-4.8 0-2.096-.41-3.696-1.23-4.8-.8-1.104-1.87-1.656-3.21-1.656-1.36 0-2.45.552-3.27 1.656-.8 1.104-1.2 2.704-1.2 4.8 0 2.096.4 3.696 1.2 4.8.82 1.104 1.91 1.656 3.27 1.656zm16.01 2.136c-1.33 0-2.52-.336-3.56-1.008-1.02-.688-1.83-1.68-2.42-2.976-.59-1.296-.89-2.832-.89-4.608 0-1.776.3-3.312.89-4.608.59-1.296 1.4-2.28 2.42-2.952 1.04-.688 2.23-1.032 3.56-1.032 1.31 0 2.48.344 3.5 1.032 1.04.672 1.86 1.656 2.45 2.952.59 1.296.89 2.832.89 4.608 0 1.776-.3 3.312-.89 4.608-.59 1.296-1.41 2.288-2.45 2.976-1.02.672-2.19 1.008-3.5 1.008zm0-2.136c1.34 0 2.41-.552 3.21-1.656.82-1.104 1.23-2.704 1.23-4.8 0-2.096-.41-3.696-1.23-4.8-.8-1.104-1.87-1.656-3.21-1.656-1.36 0-2.45.552-3.27 1.656-.8 1.104-1.2 2.704-1.2 4.8 0 2.096.4 3.696 1.2 4.8.82 1.104 1.91 1.656 3.27 1.656zm12.79-5.856c-1.14 0-2.06-.416-2.76-1.248-.69-.848-1.03-1.952-1.03-3.312 0-1.36.34-2.456 1.03-3.288.7-.848 1.62-1.272 2.76-1.272 1.12 0 2.03.416 2.73 1.248.71.832 1.06 1.936 1.06 3.312s-.35 2.48-1.06 3.312c-.7.832-1.61 1.248-2.73 1.248zm10.17-9h1.42l-11.47 16.8h-1.42L1661 98.2zm-10.17 7.92c.78 0 1.41-.304 1.87-.912.48-.624.72-1.48.72-2.568s-.24-1.936-.72-2.544c-.46-.624-1.09-.936-1.87-.936-.8 0-1.43.312-1.9.936-.46.624-.69 1.472-.69 2.544s.23 1.92.69 2.544c.47.624 1.1.936 1.9.936zm10.29 9c-1.12 0-2.03-.416-2.73-1.248-.71-.848-1.06-1.952-1.06-3.312 0-1.36.35-2.456 1.06-3.288.7-.848 1.61-1.272 2.73-1.272 1.14 0 2.05.424 2.74 1.272.7.832 1.06 1.928 1.06 3.288 0 1.36-.36 2.464-1.06 3.312-.69.832-1.6 1.248-2.74 1.248zm0-1.08c.8 0 1.44-.312 1.9-.936.46-.624.7-1.472.7-2.544s-.24-1.92-.7-2.544c-.46-.624-1.1-.936-1.9-.936-.78 0-1.41.312-1.89.936-.47.608-.7 1.456-.7 2.544s.23 1.944.7 2.568c.48.608 1.11.912 1.89.912zm17.71-11.664c1.56 0 2.75.4 3.58 1.2.83.784 1.25 1.944 1.25 3.48V115h-1.15v-2.232c-.4.736-.99 1.312-1.76 1.728-.76.4-1.68.6-2.76.6-1.39 0-2.49-.328-3.31-.984-.8-.656-1.2-1.52-1.2-2.592 0-1.04.37-1.88 1.11-2.52.75-.656 1.94-.984 3.57-.984h4.3v-1.008c0-1.168-.32-2.056-.96-2.664-.63-.608-1.55-.912-2.76-.912-.83 0-1.63.144-2.4.432-.75.288-1.39.672-1.92 1.152l-.6-.864c.62-.56 1.37-.992 2.25-1.296.88-.32 1.8-.48 2.76-.48zm-.67 11.736c1.04 0 1.92-.24 2.64-.72.74-.48 1.29-1.176 1.66-2.088v-2.352h-4.27c-1.24 0-2.13.224-2.69.672-.55.448-.82 1.064-.82 1.848 0 .816.31 1.464.91 1.944.61.464 1.47.696 2.57.696zm22.16-.168v4.176h-1.13V115h-11.86v3.12h-1.15v-4.176h.75c.84-.048 1.42-.704 1.72-1.968.32-1.28.55-3.072.68-5.376l.16-4.128h8.81v11.472h2.02zm-9.89-7.272c-.08 1.904-.24 3.488-.48 4.752-.24 1.264-.67 2.104-1.3 2.52h8.45v-10.392h-6.53l-.14 3.12zm17.58-4.296c1.56 0 2.75.4 3.58 1.2.83.784 1.25 1.944 1.25 3.48V115h-1.15v-2.232c-.4.736-.99 1.312-1.76 1.728-.76.4-1.68.6-2.76.6-1.39 0-2.49-.328-3.31-.984-.8-.656-1.2-1.52-1.2-2.592 0-1.04.37-1.88 1.11-2.52.75-.656 1.94-.984 3.57-.984h4.3v-1.008c0-1.168-.32-2.056-.96-2.664-.63-.608-1.55-.912-2.76-.912-.83 0-1.63.144-2.4.432-.75.288-1.39.672-1.92 1.152l-.6-.864c.62-.56 1.37-.992 2.25-1.296.88-.32 1.8-.48 2.76-.48zm-.67 11.736c1.04 0 1.92-.24 2.64-.72.74-.48 1.29-1.176 1.66-2.088v-2.352h-4.27c-1.24 0-2.13.224-2.69.672-.55.448-.82 1.064-.82 1.848 0 .816.31 1.464.91 1.944.61.464 1.47.696 2.57.696zm21.32-11.64V115h-1.2v-11.448h-8.55V115h-1.2v-12.528h10.95zm13.55 1.08h-4.89V115h-1.2v-11.448h-4.9v-1.08h10.99v1.08zm2.57-1.08h1.2v10.68l8.93-10.68h1.06V115h-1.2v-10.68l-8.93 10.68h-1.06v-12.528zm23.78 6.072c1.84.32 2.76 1.352 2.76 3.096 0 1.088-.4 1.92-1.2 2.496-.79.576-1.97.864-3.55.864h-5.43v-12.528h5.28c1.39 0 2.48.28 3.27.84.8.544 1.2 1.328 1.2 2.352 0 .736-.21 1.352-.63 1.848-.4.48-.97.824-1.7 1.032zm-6.24-.36h4.03c1.07 0 1.9-.2 2.47-.6.58-.416.87-1.008.87-1.776 0-.784-.29-1.368-.87-1.752-.56-.4-1.38-.6-2.47-.6h-4.03v4.728zm4.22 5.832c2.39 0 3.58-.808 3.58-2.424 0-.848-.27-1.472-.82-1.872-.54-.4-1.4-.6-2.57-.6h-4.41v4.896h4.22zm-189.63 34.88v4.944h-1.18V150h-15.36l-.02 3.84h-1.18l.03-4.944h.91c1.1-.096 1.87-1.024 2.3-2.784.45-1.76.72-4.224.82-7.392l.17-5.52h10.92v15.696h2.59zm-12.55-10.08c-.1 2.72-.31 4.944-.65 6.672-.32 1.728-.87 2.864-1.66 3.408h11.04v-14.592h-8.59l-.14 4.512zm16.03-1.344h1.2v10.68l8.93-10.68h1.06V150h-1.2v-10.68l-8.93 10.68h-1.06v-12.528zm21.6 6c.93.176 1.64.528 2.14 1.056.51.512.77 1.144.77 1.896a2.83 2.83 0 01-.75 1.944c-.48.56-1.13.992-1.97 1.296-.83.304-1.73.456-2.71.456a8.8 8.8 0 01-2.64-.408 6.982 6.982 0 01-2.23-1.224l.48-.888c.56.48 1.22.848 1.99 1.104.79.256 1.58.384 2.38.384 1.18 0 2.18-.248 3-.744.81-.512 1.22-1.184 1.22-2.016 0-.736-.34-1.312-1.03-1.728-.67-.432-1.58-.648-2.74-.648h-2.01v-.912h1.97c1 0 1.83-.2 2.47-.6.65-.4.98-.936.98-1.608 0-.784-.36-1.384-1.08-1.8-.7-.432-1.61-.648-2.71-.648-1.41 0-2.74.36-3.98 1.08l-.36-.96a9.045 9.045 0 014.48-1.176c1.4 0 2.56.304 3.48.912.93.592 1.4 1.4 1.4 2.424 0 .656-.24 1.232-.7 1.728-.46.496-1.08.856-1.85 1.08zm11.24-6.096c1.55 0 2.75.4 3.58 1.2.83.784 1.25 1.944 1.25 3.48V150h-1.16v-2.232c-.4.736-.98 1.312-1.75 1.728-.77.4-1.69.6-2.76.6-1.39 0-2.49-.328-3.31-.984-.8-.656-1.2-1.52-1.2-2.592 0-1.04.37-1.88 1.1-2.52.76-.656 1.95-.984 3.58-.984h4.3v-1.008c0-1.168-.32-2.056-.96-2.664-.63-.608-1.55-.912-2.76-.912-.84 0-1.64.144-2.4.432-.76.288-1.4.672-1.92 1.152l-.6-.864c.62-.56 1.37-.992 2.25-1.296.88-.32 1.8-.48 2.76-.48zm-.67 11.736c1.04 0 1.92-.24 2.64-.72.74-.48 1.29-1.176 1.66-2.088v-2.352h-4.28c-1.23 0-2.12.224-2.68.672-.55.448-.82 1.064-.82 1.848 0 .816.3 1.464.91 1.944.61.464 1.47.696 2.57.696zm10.37-11.64h1.2v10.68l8.93-10.68h1.06V150h-1.2v-10.68l-8.93 10.68h-1.06v-12.528zm5.55-1.92c-1.01 0-1.83-.256-2.45-.768-.63-.528-.95-1.256-.96-2.184h.89c.01.656.25 1.176.72 1.56.48.384 1.08.576 1.8.576s1.31-.192 1.77-.576c.47-.384.71-.904.72-1.56h.91c-.01.928-.33 1.656-.96 2.184-.62.512-1.44.768-2.44.768zm10.81 1.92h1.2v5.712h8.5v-5.712h1.2V150h-1.2v-5.76h-8.5V150h-1.2v-12.528zm36.55-.192V150h-2.09v-9.288l-4.75 7.848h-1.01l-4.7-7.872V150h-2.12v-12.72h2.38l4.99 8.592 5.14-8.592h2.16zm4.48 0h2.31v9.264l7.8-9.264h2.08V150h-2.3v-9.264l-7.78 9.264h-2.11v-12.72zm16.67 0h2.3v5.4h7.25v-5.4h2.3V150h-2.3v-5.328h-7.25V150h-2.3v-12.72zm16.33 0h2.31v9.264l7.8-9.264h2.08V150h-2.3v-9.264l-7.78 9.264h-2.11v-12.72zm31.33 0V150h-2.09v-9.288l-4.75 7.848h-1.01l-4.7-7.872V150h-2.11v-12.72h2.37l4.99 8.592 5.14-8.592h2.16zm9.02-.12c1.76 0 3.1.432 4.03 1.296.95.864 1.42 2.152 1.42 3.864V150h-2.19v-1.68c-.38.592-.93 1.048-1.65 1.368-.71.304-1.55.456-2.52.456-1.43 0-2.57-.344-3.43-1.032-.85-.688-1.28-1.592-1.28-2.712s.41-2.016 1.23-2.688c.81-.688 2.11-1.032 3.89-1.032h3.64v-.456c0-.992-.28-1.752-.86-2.28-.58-.528-1.42-.792-2.54-.792-.76 0-1.49.128-2.21.384-.72.24-1.33.568-1.83.984l-.96-1.728c.66-.528 1.44-.928 2.36-1.2a9.572 9.572 0 012.9-.432zm-.53 11.208c.88 0 1.64-.192 2.28-.576.64-.4 1.11-.96 1.39-1.68v-1.776h-3.55c-1.95 0-2.93.656-2.93 1.968 0 .64.25 1.144.75 1.512.49.368 1.18.552 2.06.552zm21.05-11.088V150h-2.31v-10.704h-5.47l-.14 2.832c-.08 1.712-.23 3.144-.46 4.296-.22 1.136-.59 2.048-1.1 2.736-.51.688-1.23 1.032-2.14 1.032-.41 0-.89-.072-1.41-.216l.14-1.944c.21.048.4.072.58.072.64 0 1.12-.28 1.44-.84.32-.56.52-1.224.62-1.992.1-.768.18-1.864.26-3.288l.22-4.704h9.77zm4.45 0h2.31v9.264l7.8-9.264h2.08V150h-2.3v-9.264l-7.78 9.264h-2.11v-12.72zm23.34 6.096c.85.224 1.51.584 1.97 1.08.47.496.7 1.112.7 1.848 0 .752-.26 1.424-.77 2.016-.51.576-1.22 1.032-2.14 1.368-.89.32-1.9.48-3.02.48-.94 0-1.87-.12-2.78-.36a8.54 8.54 0 01-2.4-1.08l.69-1.752c.61.384 1.31.688 2.09.912.78.208 1.58.312 2.38.312 1.08 0 1.95-.184 2.59-.552.65-.384.98-.896.98-1.536 0-.592-.26-1.048-.79-1.368-.51-.32-1.24-.48-2.18-.48h-2.33v-1.656h2.16c.86 0 1.54-.152 2.04-.456.49-.304.74-.72.74-1.248 0-.576-.29-1.024-.89-1.344-.57-.32-1.36-.48-2.35-.48-1.26 0-2.6.328-4.01.984l-.62-1.776a10.673 10.673 0 014.87-1.176c1.03 0 1.95.144 2.76.432.82.288 1.46.696 1.92 1.224.47.528.7 1.128.7 1.8a2.53 2.53 0 01-.63 1.68c-.41.496-.97.872-1.68 1.128zm20.83-6.096V150h-2.08v-9.288l-4.76 7.848h-1l-4.71-7.872V150h-2.11v-12.72h2.38l4.99 8.592 5.13-8.592h2.16zm-225.47 30.92V185h-1.22v-15.696h-11.38V185h-1.22v-16.8h13.82zm10.62 16.896c-1.19 0-2.26-.272-3.22-.816a5.922 5.922 0 01-2.23-2.256c-.55-.976-.82-2.072-.82-3.288 0-1.216.27-2.304.82-3.264a5.876 5.876 0 012.23-2.28c.96-.544 2.03-.816 3.22-.816 1.18 0 2.24.272 3.19.816a5.79 5.79 0 012.25 2.28c.55.96.82 2.048.82 3.264 0 1.216-.27 2.312-.82 3.288a5.835 5.835 0 01-2.25 2.256c-.95.544-2.01.816-3.19.816zm0-1.08c.96 0 1.81-.224 2.56-.672a4.688 4.688 0 001.8-1.872c.45-.8.68-1.712.68-2.736 0-1.024-.23-1.936-.68-2.736a4.688 4.688 0 00-1.8-1.872c-.75-.448-1.6-.672-2.56-.672s-1.83.224-2.6.672a4.97 4.97 0 00-1.8 1.872c-.43.8-.64 1.712-.64 2.736 0 1.024.21 1.936.64 2.736a4.97 4.97 0 001.8 1.872c.77.448 1.64.672 2.6.672zm19.91-11.544V185h-1.2v-11.448h-6.53l-.16 3.336c-.1 1.728-.24 3.176-.44 4.344-.19 1.168-.52 2.112-.98 2.832-.46.72-1.1 1.08-1.92 1.08-.24 0-.58-.056-1.03-.168l.12-1.032c.25.064.45.096.57.096.68 0 1.19-.328 1.54-.984.35-.656.59-1.472.72-2.448s.23-2.248.31-3.816l.22-4.32h8.78zm5.19 0h1.2v5.712h8.49v-5.712h1.2V185h-1.2v-5.76h-8.49V185h-1.2v-12.528zm20.23-.096c1.55 0 2.74.4 3.57 1.2.83.784 1.25 1.944 1.25 3.48V185h-1.15v-2.232c-.4.736-.99 1.312-1.75 1.728-.77.4-1.69.6-2.76.6-1.4 0-2.5-.328-3.32-.984-.8-.656-1.2-1.52-1.2-2.592 0-1.04.37-1.88 1.11-2.52.75-.656 1.94-.984 3.57-.984h4.3v-1.008c0-1.168-.32-2.056-.96-2.664-.62-.608-1.54-.912-2.76-.912-.83 0-1.63.144-2.4.432-.75.288-1.39.672-1.92 1.152l-.6-.864c.62-.56 1.38-.992 2.26-1.296.88-.32 1.8-.48 2.76-.48zm-.68 11.736c1.04 0 1.92-.24 2.64-.72.74-.48 1.29-1.176 1.66-2.088v-2.352h-4.27c-1.23 0-2.13.224-2.69.672-.54.448-.82 1.064-.82 1.848 0 .816.31 1.464.92 1.944.6.464 1.46.696 2.56.696zm19.62-11.64V185h-1.11v-4.32h-4.17c-.29 0-.5-.008-.63-.024l-3.09 4.344h-1.32l3.24-4.488c-1.03-.224-1.81-.664-2.36-1.32-.54-.656-.81-1.504-.81-2.544 0-1.376.45-2.416 1.37-3.12.92-.704 2.19-1.056 3.79-1.056h5.09zm-9.05 4.224c0 2.048 1.29 3.072 3.89 3.072h4.05v-6.24h-3.91c-2.69 0-4.03 1.056-4.03 3.168zm37.54-4.416l-6.17 13.992c-.54 1.296-1.18 2.208-1.92 2.736-.72.528-1.59.792-2.61.792-.63 0-1.24-.104-1.83-.312a3.7 3.7 0 01-1.44-.864l.99-1.728c.65.624 1.41.936 2.28.936.56 0 1.02-.152 1.39-.456.38-.288.73-.792 1.03-1.512l.41-.888-5.62-12.696h2.4l4.44 10.176 4.39-10.176h2.26zm14.14 0V185h-2.3v-10.704h-7.18V185h-2.3v-12.72h11.78zm9-.12c1.76 0 3.1.432 4.03 1.296.94.864 1.42 2.152 1.42 3.864V185h-2.19v-1.68c-.38.592-.93 1.048-1.65 1.368-.71.304-1.55.456-2.52.456-1.43 0-2.57-.344-3.44-1.032-.84-.688-1.27-1.592-1.27-2.712s.41-2.016 1.23-2.688c.81-.688 2.11-1.032 3.88-1.032h3.65v-.456c0-.992-.29-1.752-.86-2.28-.58-.528-1.43-.792-2.55-.792-.75 0-1.48.128-2.2.384-.72.24-1.33.568-1.83.984l-.96-1.728c.66-.528 1.44-.928 2.35-1.2a9.637 9.637 0 012.91-.432zm-.53 11.208c.88 0 1.64-.192 2.28-.576.64-.4 1.1-.96 1.39-1.68v-1.776h-3.55c-1.95 0-2.93.656-2.93 1.968 0 .64.25 1.144.75 1.512.49.368 1.18.552 2.06.552zm15.07-3.744h-2.64V185h-2.31v-12.72h2.31v5.376h2.69l4.12-5.376h2.48l-4.83 6.12 5.16 6.6h-2.71l-4.27-5.376zm14.42 5.52c-1.26 0-2.4-.28-3.4-.84a6.229 6.229 0 01-2.38-2.304c-.56-.992-.84-2.112-.84-3.36 0-1.248.28-2.36.84-3.336a6.007 6.007 0 012.38-2.304c1-.56 2.14-.84 3.4-.84 1.27 0 2.4.28 3.39.84a5.805 5.805 0 012.35 2.304c.58.976.86 2.088.86 3.336 0 1.248-.28 2.368-.86 3.36a6.013 6.013 0 01-2.35 2.304c-.99.56-2.12.84-3.39.84zm0-2.016c.82 0 1.55-.184 2.19-.552a4.032 4.032 0 001.53-1.584c.37-.688.56-1.472.56-2.352 0-.88-.19-1.656-.56-2.328a3.832 3.832 0 00-1.53-1.584c-.64-.368-1.37-.552-2.19-.552-.81 0-1.55.184-2.2.552-.64.368-1.16.896-1.54 1.584-.37.672-.55 1.448-.55 2.328 0 .88.18 1.664.55 2.352.38.672.9 1.2 1.54 1.584.65.368 1.39.552 2.2.552zm18.6-4.728c1.64.416 2.47 1.448 2.47 3.096 0 1.12-.43 1.984-1.27 2.592-.84.608-2.08.912-3.75.912h-6.12v-12.72h5.91c1.5 0 2.68.288 3.52.864.85.56 1.28 1.36 1.28 2.4 0 .672-.19 1.256-.56 1.752-.35.48-.84.848-1.48 1.104zm-6.41-.648h3.45c.88 0 1.55-.16 2-.48.46-.32.69-.784.69-1.392 0-1.216-.89-1.824-2.69-1.824h-3.45v3.696zm3.69 5.472c.96 0 1.68-.152 2.16-.456.48-.304.72-.776.72-1.416 0-.656-.22-1.144-.67-1.464-.43-.32-1.12-.48-2.06-.48h-3.84v3.816h3.69zm13.74-3.6h-2.64V185h-2.31v-12.72h2.31v5.376h2.69l4.12-5.376h2.48l-4.83 6.12 5.16 6.6h-2.71l-4.27-5.376zm13.7-7.464c1.76 0 3.1.432 4.03 1.296.95.864 1.42 2.152 1.42 3.864V185h-2.19v-1.68c-.38.592-.93 1.048-1.65 1.368-.71.304-1.55.456-2.52.456-1.43 0-2.57-.344-3.43-1.032-.85-.688-1.28-1.592-1.28-2.712s.41-2.016 1.23-2.688c.81-.688 2.11-1.032 3.89-1.032h3.64v-.456c0-.992-.28-1.752-.86-2.28-.58-.528-1.42-.792-2.54-.792-.76 0-1.49.128-2.21.384-.72.24-1.33.568-1.83.984l-.96-1.728c.66-.528 1.44-.928 2.36-1.2a9.572 9.572 0 012.9-.432zm-.53 11.208c.88 0 1.64-.192 2.28-.576.64-.4 1.11-.96 1.39-1.68v-1.776h-3.55c-1.95 0-2.93.656-2.93 1.968 0 .64.25 1.144.75 1.512.49.368 1.18.552 2.06.552zm-150.36 24.344c1.18 0 2.24.264 3.17.792a5.621 5.621 0 012.16 2.208c.52.928.79 1.992.79 3.192 0 1.232-.28 2.328-.84 3.288a5.67 5.67 0 01-2.33 2.208c-.99.528-2.13.792-3.41.792-2.16 0-3.83-.736-5.01-2.208-1.17-1.488-1.76-3.576-1.76-6.264 0-2.608.54-4.648 1.61-6.12 1.07-1.488 2.71-2.472 4.92-2.952l5.81-1.296.34 2.112-5.36 1.152c-1.66.368-2.9.992-3.72 1.872-.81.88-1.28 2.144-1.39 3.792a5.667 5.667 0 012.11-1.896c.87-.448 1.84-.672 2.91-.672zm-.41 10.56c.82 0 1.54-.184 2.16-.552a3.854 3.854 0 001.49-1.512c.35-.656.53-1.4.53-2.232 0-1.264-.39-2.28-1.16-3.048-.76-.768-1.77-1.152-3.02-1.152s-2.26.384-3.05 1.152c-.77.768-1.15 1.784-1.15 3.048 0 .832.18 1.576.53 2.232.37.64.87 1.144 1.51 1.512.64.368 1.36.552 2.16.552zm9.82-10.992h2.3v9.264l7.8-9.264h2.09V220h-2.3v-9.264l-7.78 9.264h-2.11v-12.72zm23.34 6.096c.85.224 1.5.584 1.97 1.08.46.496.69 1.112.69 1.848 0 .752-.25 1.424-.77 2.016-.51.576-1.22 1.032-2.13 1.368-.9.32-1.91.48-3.03.48-.94 0-1.87-.12-2.78-.36a8.54 8.54 0 01-2.4-1.08l.7-1.752c.6.384 1.3.688 2.08.912.79.208 1.58.312 2.38.312 1.09 0 1.95-.184 2.59-.552.66-.384.99-.896.99-1.536 0-.592-.27-1.048-.8-1.368-.51-.32-1.24-.48-2.18-.48h-2.33v-1.656h2.16c.87 0 1.55-.152 2.04-.456.5-.304.75-.72.75-1.248 0-.576-.3-1.024-.89-1.344-.58-.32-1.36-.48-2.35-.48-1.27 0-2.6.328-4.01.984l-.63-1.776c1.56-.784 3.18-1.176 4.88-1.176 1.02 0 1.94.144 2.76.432.81.288 1.45.696 1.92 1.224.46.528.69 1.128.69 1.8 0 .624-.21 1.184-.62 1.68-.42.496-.98.872-1.68 1.128zm6.17-6.096h2.3v5.4h7.25v-5.4h2.3V220h-2.3v-5.328h-7.25V220h-2.3v-12.72zm27.83 6.432c0 .176-.02.408-.05.696h-10.32c.14 1.12.63 2.024 1.46 2.712.85.672 1.9 1.008 3.15 1.008 1.52 0 2.74-.512 3.67-1.536l1.27 1.488a5.468 5.468 0 01-2.16 1.536c-.85.352-1.8.528-2.85.528-1.35 0-2.54-.272-3.58-.816-1.04-.56-1.85-1.336-2.42-2.328-.56-.992-.84-2.112-.84-3.36 0-1.232.27-2.344.81-3.336a5.955 5.955 0 012.28-2.304c.98-.56 2.07-.84 3.29-.84 1.22 0 2.3.28 3.24.84.96.544 1.7 1.312 2.23 2.304.55.992.82 2.128.82 3.408zm-6.29-4.608c-1.1 0-2.03.336-2.78 1.008-.74.672-1.17 1.552-1.3 2.64h8.16c-.13-1.072-.57-1.944-1.32-2.616-.74-.688-1.66-1.032-2.76-1.032zm15.41 11.04c-1.3 0-2.46-.28-3.48-.84a6.229 6.229 0 01-2.38-2.304c-.58-.992-.86-2.112-.86-3.36 0-1.248.28-2.36.86-3.336a6.007 6.007 0 012.38-2.304c1.02-.56 2.18-.84 3.48-.84 1.15 0 2.17.232 3.07.696a4.97 4.97 0 012.11 2.016l-1.75 1.128c-.4-.608-.9-1.064-1.49-1.368a4.247 4.247 0 00-1.97-.456c-.83 0-1.58.184-2.25.552-.66.368-1.18.896-1.56 1.584-.37.672-.56 1.448-.56 2.328 0 .896.19 1.688.56 2.376.38.672.9 1.192 1.56 1.56.67.368 1.42.552 2.25.552.72 0 1.38-.152 1.97-.456.59-.304 1.09-.76 1.49-1.368l1.75 1.104c-.5.88-1.2 1.56-2.11 2.04-.9.464-1.92.696-3.07.696zm12.7-12.984c1.76 0 3.1.432 4.03 1.296.94.864 1.42 2.152 1.42 3.864V220h-2.19v-1.68c-.38.592-.93 1.048-1.65 1.368-.71.304-1.55.456-2.52.456-1.43 0-2.57-.344-3.44-1.032-.84-.688-1.27-1.592-1.27-2.712s.41-2.016 1.23-2.688c.81-.688 2.11-1.032 3.88-1.032h3.65v-.456c0-.992-.29-1.752-.86-2.28-.58-.528-1.43-.792-2.55-.792-.75 0-1.48.128-2.2.384-.72.24-1.33.568-1.83.984l-.96-1.728c.66-.528 1.44-.928 2.35-1.2a9.637 9.637 0 012.91-.432zm-.53 11.208c.88 0 1.64-.192 2.28-.576.64-.4 1.1-.96 1.39-1.68v-1.776h-3.55c-1.95 0-2.93.656-2.93 1.968 0 .64.25 1.144.75 1.512.49.368 1.18.552 2.06.552z" fill="#000"/><path d="M395.649 27.824h-5.968L389.697 38h-1.168V26.8h7.12v1.024zm9.398-1.024V38h-1.168V27.824h-5.408l-.128 3.744c-.053 1.547-.181 2.795-.384 3.744-.192.939-.491 1.643-.896 2.112-.405.459-.944.688-1.616.688-.288 0-.587-.037-.896-.112l.096-1.056c.181.043.357.064.528.064.469 0 .848-.187 1.136-.56.299-.373.523-.95.672-1.728.149-.79.251-1.83.304-3.12l.16-4.8h7.6zm10.947 8.208h-6.24L408.41 38h-1.232l5.12-11.2h1.168l5.12 11.2h-1.248l-1.344-2.992zm-.432-.96l-2.688-6.016-2.688 6.016h5.376zm11.81-1.824c.778.16 1.37.475 1.776.944.405.459.608 1.061.608 1.808 0 .97-.347 1.717-1.04 2.24-.683.523-1.691.784-3.024.784h-4.96V26.8h4.656c1.194 0 2.128.245 2.8.736.672.49 1.008 1.2 1.008 2.128 0 .63-.16 1.163-.48 1.6-.32.427-.768.747-1.344.96zm-5.472-.352h3.424c.864 0 1.525-.176 1.984-.528.469-.352.704-.864.704-1.536s-.235-1.184-.704-1.536c-.459-.352-1.12-.528-1.984-.528H421.9v4.128zm3.792 5.184c1.93 0 2.896-.72 2.896-2.16 0-1.408-.966-2.112-2.896-2.112H421.9v4.272h3.792zM442.076 26.8V38h-1.168v-5.168H433.9V38h-1.184V26.8h1.184v4.992h7.008V26.8h1.168zm10.949 8.208h-6.24L445.441 38h-1.232l5.12-11.2h1.168l5.12 11.2h-1.248l-1.344-2.992zm-.432-.96l-2.688-6.016-2.688 6.016h5.376zm12.59-7.248V38h-1.168v-3.392h-3.344c-.149 0-.362-.01-.64-.032L457.679 38h-1.264l2.544-3.632c-.821-.245-1.45-.677-1.888-1.296-.437-.63-.656-1.397-.656-2.304 0-1.259.395-2.235 1.184-2.928.8-.693 1.878-1.04 3.232-1.04h4.352zm-7.584 3.936c0 .917.267 1.627.8 2.128.544.49 1.334.736 2.368.736h3.248v-5.776h-3.136c-1.045 0-1.856.25-2.432.752-.565.49-.848 1.21-.848 2.16z" fill="#00C3B5"/><path d="M540.878 38.096c-1.109 0-2.117-.245-3.024-.736a5.566 5.566 0 01-2.112-2.048c-.501-.864-.752-1.835-.752-2.912s.251-2.048.752-2.912a5.45 5.45 0 012.112-2.032c.907-.501 1.915-.752 3.024-.752s2.107.245 2.992.736c.896.49 1.6 1.173 2.112 2.048.512.864.768 1.835.768 2.912s-.256 2.053-.768 2.928a5.45 5.45 0 01-2.112 2.032c-.885.49-1.883.736-2.992.736zm0-1.056c.885 0 1.685-.197 2.4-.592a4.411 4.411 0 001.68-1.664 4.75 4.75 0 00.608-2.384c0-.875-.203-1.664-.608-2.368a4.267 4.267 0 00-1.68-1.664c-.715-.405-1.515-.608-2.4-.608s-1.691.203-2.416.608a4.38 4.38 0 00-1.696 1.664c-.405.704-.608 1.493-.608 2.368 0 .875.203 1.67.608 2.384a4.532 4.532 0 001.696 1.664c.725.395 1.531.592 2.416.592zm22.245-10.24V38h-1.168v-5.168h-7.008V38h-1.184V26.8h1.184v4.992h7.008V26.8h1.168zm10.949 8.208h-6.24L566.488 38h-1.232l5.12-11.2h1.168l5.12 11.2h-1.248l-1.344-2.992zm-.432-.96l-2.688-6.016-2.688 6.016h5.376zm9.91 4.048c-1.11 0-2.112-.245-3.008-.736a5.476 5.476 0 01-2.096-2.032c-.502-.875-.752-1.85-.752-2.928 0-1.077.25-2.048.752-2.912a5.415 5.415 0 012.112-2.048c.896-.49 1.898-.736 3.008-.736.832 0 1.6.139 2.304.416a4.778 4.778 0 011.792 1.216l-.752.752c-.875-.885-1.979-1.328-3.312-1.328-.886 0-1.691.203-2.416.608a4.496 4.496 0 00-1.712 1.664c-.406.704-.608 1.493-.608 2.368 0 .875.202 1.664.608 2.368a4.496 4.496 0 001.712 1.664c.725.405 1.53.608 2.416.608 1.344 0 2.448-.448 3.312-1.344l.752.752a4.92 4.92 0 01-1.808 1.232 6.232 6.232 0 01-2.304.416zM665.907 26.8l-5.088 9.424c-.363.672-.79 1.173-1.28 1.504-.48.32-1.008.48-1.584.48-.427 0-.886-.101-1.376-.304l.336-.96c.384.15.736.224 1.056.224.736 0 1.338-.4 1.808-1.2l.32-.544-4.544-8.624h1.264l3.904 7.584 4-7.584h1.184zm6.627 11.296c-1.109 0-2.112-.245-3.008-.736a5.483 5.483 0 01-2.096-2.032c-.501-.875-.752-1.85-.752-2.928 0-1.077.251-2.048.752-2.912a5.415 5.415 0 012.112-2.048c.896-.49 1.899-.736 3.008-.736.832 0 1.6.139 2.304.416a4.778 4.778 0 011.792 1.216l-.752.752c-.875-.885-1.979-1.328-3.312-1.328-.885 0-1.691.203-2.416.608a4.503 4.503 0 00-1.712 1.664c-.405.704-.608 1.493-.608 2.368 0 .875.203 1.664.608 2.368a4.503 4.503 0 001.712 1.664c.725.405 1.531.608 2.416.608 1.344 0 2.448-.448 3.312-1.344l.752.752a4.912 4.912 0 01-1.808 1.232 6.232 6.232 0 01-2.304.416zM687.578 26.8V38h-1.168V27.824h-5.408l-.128 3.744c-.053 1.547-.181 2.795-.384 3.744-.192.939-.49 1.643-.896 2.112-.405.459-.944.688-1.616.688-.288 0-.586-.037-.896-.112l.096-1.056c.182.043.358.064.528.064.47 0 .848-.187 1.136-.56.299-.373.523-.95.672-1.728.15-.79.251-1.83.304-3.12l.16-4.8h7.6zm12.579 0l-5.088 9.424c-.363.672-.79 1.173-1.28 1.504-.48.32-1.008.48-1.584.48-.427 0-.886-.101-1.376-.304l.336-.96c.384.15.736.224 1.056.224.736 0 1.338-.4 1.808-1.2l.32-.544-4.544-8.624h1.264l3.904 7.584 4-7.584h1.184zm8.96 1.024h-5.968L703.165 38h-1.168V26.8h7.12v1.024zm2.037-1.024h1.168v9.28l7.168-9.28h1.072V38h-1.168v-9.264L712.226 38h-1.072V26.8zm80.192 0c1.429 0 2.549.341 3.36 1.024.81.683 1.216 1.621 1.216 2.816 0 1.195-.406 2.133-1.216 2.816-.811.672-1.931 1.008-3.36 1.008h-3.008V38h-1.184V26.8h4.192zm-.032 6.624c1.109 0 1.957-.24 2.544-.72.586-.49.88-1.179.88-2.064 0-.907-.294-1.6-.88-2.08-.587-.49-1.435-.736-2.544-.736h-2.976v5.6h2.976zm13.648 1.584h-6.24L797.378 38h-1.232l5.12-11.2h1.168l5.12 11.2h-1.248l-1.344-2.992zm-.432-.96l-2.688-6.016-2.688 6.016h5.376zm5.171-7.248h8.192v1.008h-7.024v3.664h3.664c1.322 0 2.325.272 3.008.816.693.544 1.04 1.333 1.04 2.368 0 1.077-.374 1.904-1.12 2.48-.736.576-1.798.864-3.184.864h-4.576V26.8zm4.56 10.256c1.034 0 1.813-.197 2.336-.592.533-.395.8-.981.8-1.76 0-.768-.262-1.339-.784-1.712-.512-.384-1.296-.576-2.352-.576h-3.392v4.64h3.392zm11.977 1.04c-1.11 0-2.118-.245-3.024-.736a5.566 5.566 0 01-2.112-2.048c-.502-.864-.752-1.835-.752-2.912s.25-2.048.752-2.912a5.45 5.45 0 012.112-2.032c.906-.501 1.914-.752 3.024-.752 1.109 0 2.106.245 2.992.736.896.49 1.6 1.173 2.112 2.048.512.864.768 1.835.768 2.912s-.256 2.053-.768 2.928a5.45 5.45 0 01-2.112 2.032c-.886.49-1.883.736-2.992.736zm0-1.056c.885 0 1.685-.197 2.4-.592a4.425 4.425 0 001.68-1.664 4.75 4.75 0 00.608-2.384c0-.875-.203-1.664-.608-2.368a4.28 4.28 0 00-1.68-1.664c-.715-.405-1.515-.608-2.4-.608-.886 0-1.691.203-2.416.608a4.38 4.38 0 00-1.696 1.664c-.406.704-.608 1.493-.608 2.368 0 .875.202 1.67.608 2.384a4.532 4.532 0 001.696 1.664c.725.395 1.53.592 2.416.592zm15.869-9.216h-3.936V38h-1.168V27.824h-3.936V26.8h9.04v1.024zm6.766 2.976c1.323 0 2.331.299 3.024.896.704.597 1.056 1.472 1.056 2.624 0 1.205-.373 2.123-1.12 2.752-.736.619-1.803.928-3.2.928h-4.448V26.8h1.168v4h3.52zm-.272 6.256c1.035 0 1.819-.23 2.352-.688.544-.459.816-1.136.816-2.032 0-1.717-1.056-2.576-3.168-2.576h-3.248v5.296h3.248zm6.288-10.256h1.168V38h-1.168V26.8zm63.086 6.064h-2.56V38h-1.152V26.8h1.152v5.024h2.56l3.792-5.024h1.28l-4.16 5.44 4.4 5.76h-1.36l-3.952-5.136zm12.028 5.232c-1.109 0-2.117-.245-3.024-.736a5.566 5.566 0 01-2.112-2.048c-.501-.864-.752-1.835-.752-2.912s.251-2.048.752-2.912a5.45 5.45 0 012.112-2.032c.907-.501 1.915-.752 3.024-.752s2.107.245 2.992.736c.896.49 1.6 1.173 2.112 2.048.512.864.768 1.835.768 2.912s-.256 2.053-.768 2.928a5.45 5.45 0 01-2.112 2.032c-.885.49-1.883.736-2.992.736zm0-1.056c.885 0 1.685-.197 2.4-.592a4.411 4.411 0 001.68-1.664 4.75 4.75 0 00.608-2.384c0-.875-.203-1.664-.608-2.368a4.267 4.267 0 00-1.68-1.664c-.715-.405-1.515-.608-2.4-.608s-1.691.203-2.416.608a4.38 4.38 0 00-1.696 1.664c-.405.704-.608 1.493-.608 2.368 0 .875.203 1.67.608 2.384a4.532 4.532 0 001.696 1.664c.725.395 1.531.592 2.416.592zm18.058-10.24V38h-1.168v-5.168h-7.008V38h-1.184V26.8h1.184v4.992h7.008V26.8h1.168zm11.108 1.024h-3.936V38h-1.168V27.824h-3.936V26.8h9.04v1.024zm8.684 7.184h-6.24L960.269 38h-1.232l5.12-11.2h1.168l5.12 11.2h-1.248l-1.344-2.992zm-.432-.96l-2.688-6.016-2.688 6.016h5.376zm8.882-1.184h-2.56V38h-1.152V26.8h1.152v5.024h2.56l3.792-5.024h1.28l-4.16 5.44 4.4 5.76h-1.36l-3.952-5.136zm14.366-5.04h-3.936V38h-1.168V27.824h-3.936V26.8h9.04v1.024zm6.766 2.976c1.323 0 2.331.299 3.025.896.7.597 1.06 1.472 1.06 2.624 0 1.205-.38 2.123-1.12 2.752-.741.619-1.807.928-3.205.928h-4.448V26.8h1.168v4h3.52zm-.272 6.256c1.035 0 1.819-.23 2.352-.688.545-.459.815-1.136.815-2.032 0-1.717-1.055-2.576-3.167-2.576h-3.248v5.296h3.248zm6.287-10.256h1.17V38h-1.17V26.8zm59.38 0h8.19v1.008h-7.03v3.664h3.67c1.32 0 2.32.272 3.01.816.69.544 1.04 1.333 1.04 2.368 0 1.077-.38 1.904-1.12 2.48-.74.576-1.8.864-3.19.864h-4.57V26.8zm4.56 10.256c1.03 0 1.81-.197 2.33-.592.53-.395.8-.981.8-1.76 0-.768-.26-1.339-.78-1.712-.51-.384-1.3-.576-2.35-.576h-3.4v4.64h3.4zm15.55-10.256V38h-1.17V27.824h-5.41l-.13 3.744c-.05 1.547-.18 2.795-.38 3.744-.19.939-.49 1.643-.9 2.112-.4.459-.94.688-1.61.688-.29 0-.59-.037-.9-.112l.1-1.056c.18.043.35.064.53.064.46 0 .84-.187 1.13-.56.3-.373.52-.95.67-1.728.15-.79.25-1.83.31-3.12l.16-4.8h7.6zm8.69 11.296c-1.11 0-2.12-.245-3.03-.736a5.589 5.589 0 01-2.11-2.048c-.5-.864-.75-1.835-.75-2.912s.25-2.048.75-2.912a5.472 5.472 0 012.11-2.032c.91-.501 1.92-.752 3.03-.752 1.11 0 2.1.245 2.99.736.9.49 1.6 1.173 2.11 2.048.51.864.77 1.835.77 2.912s-.26 2.053-.77 2.928a5.404 5.404 0 01-2.11 2.032c-.89.49-1.88.736-2.99.736zm0-1.056c.88 0 1.68-.197 2.4-.592a4.48 4.48 0 001.68-1.664c.4-.715.61-1.51.61-2.384 0-.875-.21-1.664-.61-2.368a4.333 4.333 0 00-1.68-1.664 4.81 4.81 0 00-2.4-.608c-.89 0-1.69.203-2.42.608-.71.395-1.28.95-1.69 1.664-.41.704-.61 1.493-.61 2.368 0 .875.2 1.67.61 2.384.41.704.98 1.259 1.69 1.664.73.395 1.53.592 2.42.592zm15.82-9.216h-5.97l.01 10.176h-1.16V26.8h7.12v1.024zm62.66 5.056h-2.97v2.912h-1.01V32.88h-2.98v-.944h2.98v-2.928h1.01v2.928h2.97v.944zm5.45-1.28c1.18.064 2.07.384 2.67.96.62.565.93 1.307.93 2.224 0 .64-.15 1.21-.46 1.712-.31.49-.77.88-1.38 1.168-.61.288-1.35.432-2.22.432a6.93 6.93 0 01-2.31-.384c-.71-.267-1.29-.619-1.72-1.056l.56-.912c.37.384.87.699 1.48.944a5.56 5.56 0 001.99.352c.92 0 1.62-.197 2.13-.592.5-.405.75-.96.75-1.664 0-.693-.25-1.237-.75-1.632-.51-.395-1.26-.592-2.28-.592h-.8v-.848l3.11-3.888h-5.73V26.8h7.2v.816l-3.17 3.984zm11.64.528c.71.235 1.24.587 1.62 1.056.38.47.57 1.035.57 1.696 0 .65-.17 1.221-.52 1.712-.36.48-.86.853-1.52 1.12-.66.256-1.42.384-2.31.384-1.34 0-2.4-.288-3.17-.864-.76-.576-1.15-1.36-1.15-2.352 0-.672.18-1.237.55-1.696.37-.47.91-.821 1.61-1.056-.57-.224-1.01-.544-1.31-.96-.3-.427-.45-.928-.45-1.504 0-.907.35-1.627 1.06-2.16.71-.533 1.67-.8 2.86-.8.79 0 1.48.123 2.07.368.59.235 1.06.576 1.39 1.024.33.448.49.97.49 1.568 0 .576-.15 1.077-.46 1.504-.31.416-.75.736-1.33.96zm-4.93-2.432c0 .619.25 1.11.74 1.472.49.363 1.17.544 2.03.544.87 0 1.54-.181 2.03-.544.5-.363.76-.848.76-1.456 0-.63-.26-1.125-.77-1.488-.5-.363-1.18-.544-2.02-.544-.85 0-1.53.181-2.03.544a1.74 1.74 0 00-.74 1.472zm2.77 7.424c.99 0 1.77-.203 2.32-.608.57-.405.85-.955.85-1.648s-.28-1.237-.85-1.632c-.55-.405-1.33-.608-2.32-.608-.98 0-1.75.203-2.32.608-.55.395-.83.939-.83 1.632 0 .704.28 1.259.83 1.664.56.395 1.33.592 2.32.592zm14.6.976c-.86 0-1.64-.23-2.32-.688-.67-.459-1.2-1.115-1.58-1.968-.38-.864-.56-1.877-.56-3.04s.18-2.17.56-3.024c.38-.864.91-1.525 1.58-1.984.68-.459 1.46-.688 2.32-.688.86 0 1.63.23 2.3.688.69.459 1.22 1.12 1.6 1.984.39.853.58 1.861.58 3.024s-.19 2.176-.58 3.04c-.38.853-.91 1.51-1.6 1.968-.67.459-1.44.688-2.3.688zm0-1.056c.65 0 1.22-.181 1.71-.544.5-.363.89-.89 1.17-1.584.28-.693.42-1.53.42-2.512 0-.981-.14-1.819-.42-2.512-.28-.693-.67-1.221-1.17-1.584-.49-.363-1.06-.544-1.71-.544-.65 0-1.23.181-1.73.544-.49.363-.87.89-1.15 1.584-.28.693-.42 1.53-.42 2.512 0 .981.14 1.819.42 2.512.28.693.66 1.221 1.15 1.584.5.363 1.08.544 1.73.544zm9.07-5.648c1.62 0 2.8.293 3.54.88.75.576 1.12 1.387 1.12 2.432 0 .65-.16 1.232-.46 1.744-.3.512-.76.917-1.36 1.216-.61.288-1.36.432-2.24.432-.8 0-1.57-.128-2.29-.384-.72-.267-1.29-.619-1.73-1.056l.56-.912c.37.384.86.699 1.47.944.61.235 1.27.352 1.97.352.93 0 1.64-.208 2.14-.624.52-.416.77-.97.77-1.664 0-.768-.29-1.35-.86-1.744-.57-.395-1.53-.592-2.88-.592h-2.39l.58-5.616h6.13v1.024h-5.12l-.39 3.568h1.44zm10.59 6.704c-.87 0-1.64-.23-2.32-.688-.68-.459-1.2-1.115-1.59-1.968-.37-.864-.56-1.877-.56-3.04s.19-2.17.56-3.024c.39-.864.91-1.525 1.59-1.984.68-.459 1.45-.688 2.32-.688.86 0 1.63.23 2.3.688.68.459 1.22 1.12 1.6 1.984.38.853.58 1.861.58 3.024s-.2 2.176-.58 3.04c-.38.853-.92 1.51-1.6 1.968-.67.459-1.44.688-2.3.688zm0-1.056c.65 0 1.22-.181 1.71-.544.5-.363.89-.89 1.17-1.584.27-.693.41-1.53.41-2.512 0-.981-.14-1.819-.41-2.512-.28-.693-.67-1.221-1.17-1.584-.49-.363-1.06-.544-1.71-.544-.65 0-1.23.181-1.73.544-.49.363-.88.89-1.15 1.584-.28.693-.42 1.53-.42 2.512 0 .981.14 1.819.42 2.512.27.693.66 1.221 1.15 1.584.5.363 1.08.544 1.73.544zm13.42-10.24V38h-1.15V27.824h-2.64V26.8h3.79zm7.31 4.496c.74 0 1.39.139 1.96.416.57.277 1.02.672 1.34 1.184.32.501.48 1.088.48 1.76 0 .683-.16 1.285-.5 1.808-.33.523-.78.928-1.37 1.216-.58.277-1.23.416-1.95.416-1.49 0-2.62-.485-3.41-1.456-.79-.981-1.19-2.363-1.19-4.144 0-1.248.22-2.304.64-3.168.43-.864 1.03-1.515 1.8-1.952.76-.448 1.66-.672 2.68-.672 1.11 0 2 .203 2.66.608l-.46.928c-.54-.352-1.26-.528-2.18-.528-1.24 0-2.21.395-2.91 1.184-.71.779-1.06 1.915-1.06 3.408 0 .267.02.57.05.912.28-.608.72-1.077 1.33-1.408.61-.341 1.31-.512 2.09-.512zm-.09 5.824c.81 0 1.47-.219 1.97-.656.51-.448.76-1.04.76-1.776s-.25-1.323-.76-1.76c-.5-.437-1.19-.656-2.05-.656-.57 0-1.07.107-1.51.32-.42.213-.76.507-1 .88-.25.373-.37.79-.37 1.248 0 .427.11.821.33 1.184.24.363.58.656 1.03.88.45.224.98.336 1.6.336zm12.98-10.32v.816L1248.24 38h-1.25l4.61-10.176h-5.76v2.096h-1.14V26.8h8.22zm13.61 0v.816L1261.84 38h-1.24l4.6-10.176h-5.76v2.096h-1.13V26.8h8.22zm5.01-.096c1.48 0 2.62.49 3.41 1.472.79.97 1.18 2.347 1.18 4.128 0 1.248-.21 2.304-.64 3.168-.43.864-1.02 1.52-1.79 1.968-.77.437-1.67.656-2.69.656-1.11 0-1.99-.203-2.66-.608l.47-.928c.53.352 1.26.528 2.17.528 1.24 0 2.21-.39 2.92-1.168.7-.79 1.05-1.93 1.05-3.424 0-.277-.01-.581-.05-.912-.27.608-.72 1.083-1.32 1.424-.61.33-1.31.496-2.1.496-.74 0-1.39-.139-1.97-.416a3.258 3.258 0 01-1.33-1.168c-.32-.512-.48-1.104-.48-1.776 0-.683.17-1.285.5-1.808a3.2 3.2 0 011.36-1.2c.59-.288 1.24-.432 1.97-.432zm.13 5.824c.56 0 1.06-.107 1.48-.32.44-.213.78-.507 1.03-.88.24-.373.37-.79.37-1.248 0-.427-.12-.821-.36-1.184-.22-.363-.56-.656-1-.88-.45-.224-.98-.336-1.6-.336-.81 0-1.48.224-1.99.672-.5.437-.75 1.024-.75 1.76s.25 1.323.75 1.76c.51.437 1.2.656 2.07.656zm19.84 2.528h-2.24V38h-1.15v-2.944h-6.32v-.832l5.93-7.424h1.28l-5.73 7.232h4.87V31.44h1.12v2.592h2.24v1.024zm8.16-8.256v.816L1294.99 38h-1.25l4.61-10.176h-5.76v2.096h-1.14V26.8h8.22z" fill="#fff"/></svg>