<svg width="34" height="37" fill="none" xmlns="http://www.w3.org/2000/svg"><path d="M33.39 0H.61C.272 0 0 .293 0 .654v35.24c0 .365.272.656.61.656h32.78c.338 0 .61-.293.61-.656V.654C34 .293 33.726 0 33.39 0zm-.609 35.241H1.221V1.312h31.56v33.93z" fill="#00C3B5"/><path d="M4.709 31.145h24.583a.593.593 0 00.432-.19.691.691 0 00.178-.466V4.059c0-.361-.274-.654-.61-.654H4.709c-.337 0-.61.294-.61.654v26.43c.001.363.273.656.61.656zm.61-26.428H28.68v16.957l-.001.005c0 2.069-1.563 3.75-3.484 3.75-.867 0-1.684-.374-2.327-1.009l2.852-4.58a.69.69 0 00.031-.673.604.604 0 00-.537-.346H8.826a.602.602 0 00-.536.346.7.7 0 00.028.674l2.822 4.57c-.644.641-1.463 1.019-2.33 1.019-1.924 0-3.488-1.682-3.488-3.751V4.717h-.003zm16.787 18.572c-.036-.074-.09-.141-.12-.22a3.048 3.048 0 01-.09-.257 3.856 3.856 0 01-.189-1.133c0-.362-.272-.654-.61-.654-.336 0-.61.294-.61.654 0 2.069-1.564 3.75-3.486 3.75-1.923 0-3.489-1.681-3.49-3.75 0-.362-.272-.654-.61-.654-.338 0-.61.294-.61.654 0 .389-.078.763-.19 1.128a3.69 3.69 0 01-.087.256c-.029.074-.082.138-.115.208l-1.94-3.14h14.109l-1.962 3.158zM5.32 25.078c.862 1.019 2.106 1.664 3.487 1.664 1.374 0 2.68-.663 3.587-1.818.19-.245.359-.5.502-.768.808 1.54 2.347 2.586 4.106 2.586 1.76 0 3.295-1.047 4.104-2.586.144.274.314.533.507.777.002.005.003 0 .005.005.903 1.148 2.207 1.804 3.576 1.804 1.38 0 2.624-.645 3.484-1.664v4.756H5.317v-4.756h.002z" fill="#00C3B5"/><path d="M10.61 18.104H22.9a.099.099 0 01.032 0c.336 0 .61-.293.61-.653a.667.667 0 00-.244-.525l-6.055-8.68a.607.607 0 00-.976 0l-6.145 8.81a.7.7 0 00-.057.69.607.607 0 00.545.358zm6.145-8.37l4.927 7.061H11.83l4.925-7.061z" fill="#00C3B5"/></svg>