<svg width="28" height="44" fill="none" xmlns="http://www.w3.org/2000/svg"><path d="M3.783 24a.785.785 0 00-.783.783v5.287a.785.785 0 001.57 0v-5.287A.784.784 0 003.783 24zm0-11a.787.787 0 00-.783.787v5.285a.786.786 0 101.57 0v-5.285A.786.786 0 003.783 13z" fill="#00C3B5"/><path d="M.783 43.853h26.43a.787.787 0 00.787-.787V.789a.783.783 0 00-.484-.724.775.775 0 00-.862.169l-2.632 2.634c-.007.002-.007.006-.011.01L14 12.884 1.342.234A.786.786 0 000 .789v42.277c0 .434.351.787.783.787zM1.57 2.687l1.073 1.07v4.96a.785.785 0 001.57 0V5.329l9.232 9.222a.78.78 0 001.11 0l9.227-9.222v3.38a.787.787 0 101.574 0V3.757l1.07-1.07V42.28H1.572V2.687H1.57z" fill="#00C3B5"/><path d="M3.783 33.844A.787.787 0 003 34.63v5.285a.786.786 0 101.57 0V34.63a.786.786 0 00-.787-.787zm20.43-10.271a.789.789 0 00-.787.784v5.287a.788.788 0 001.574 0v-5.287a.786.786 0 00-.787-.784zm0-10.573a.79.79 0 00-.787.787v5.285a.79.79 0 00.787.787.788.788 0 00.787-.787v-5.285a.788.788 0 00-.787-.787zm-.426 21a.79.79 0 00-.787.787v5.285a.787.787 0 101.574 0v-5.285a.788.788 0 00-.787-.787z" fill="#00C3B5"/></svg>