<svg width="56" height="39" fill="none" xmlns="http://www.w3.org/2000/svg"><path d="M31.472 36.365H4.105C1.973 36.365.25 34.68.25 32.621V5.994c0-2.057 1.723-3.744 3.855-3.744h27.367c2.132 0 3.855 1.687 3.855 3.744v26.627c0 2.058-1.723 3.744-3.855 3.744zM4.105 4.413c-.887 0-1.618.702-1.618 1.581v26.627c0 .88.731 1.582 1.618 1.582h27.367c.887 0 1.618-.702 1.618-1.582V5.994c0-.88-.731-1.581-1.618-1.581H4.105z" fill="#00C3B5" stroke="#101010" stroke-width=".5"/><path d="M39 15.31v8.247a6 6 0 002.327 4.745l9.895 7.66c1.324 1.025 3.246.067 3.224-1.607l-.392-30.156c-.021-1.684-1.986-2.589-3.28-1.51L41.16 10.7A6 6 0 0039 15.31z" stroke="#00C3B5" stroke-width="2"/></svg>