<svg width="37" height="37" fill="none" xmlns="http://www.w3.org/2000/svg"><path d="M36.336 0H.664A.663.663 0 000 .662v35.673c0 .37.296.664.664.664h35.672a.664.664 0 00.664-.664V.662A.664.664 0 0036.336 0zm-.664 35.674H1.328V1.328h34.344v34.346z" fill="#00C3B5"/><path d="M4.589 32.183c.042.075.074.141.142.195.024.02.026.052.052.068a.661.661 0 00.34.094h26.752c.065 0 .109-.05.169-.07.061-.018.126.007.181-.03.025-.018.025-.048.046-.062.07-.059.1-.125.144-.203.042-.077.082-.14.094-.225.001-.03.029-.045.029-.076V5.12a.662.662 0 00-.663-.663H5.125a.665.665 0 00-.664.663v26.754c0 .034.029.05.034.081.01.086.048.15.094.228zm1.708-.97l5.517-9.195 1.75 2.92 3.765 6.275H6.297zm12.579 0l-3.967-6.611 5.818-9.31 9.951 15.921H18.877zM5.789 5.787h25.424v23.774l-9.924-15.873c-.24-.39-.883-.39-1.124 0l-6.022 9.63-1.76-2.934a.671.671 0 00-1.14 0l-5.457 9.098V5.787h.003z" fill="#00C3B5"/><path d="M15.787 11.893a2.895 2.895 0 00-5.787 0 2.898 2.898 0 002.893 2.894 2.9 2.9 0 002.894-2.894zm-4.46 0c0-.864.703-1.566 1.566-1.566.863 0 1.566.703 1.566 1.566a1.567 1.567 0 01-3.133 0z" fill="#00C3B5"/></svg>