<svg width="39" height="40" fill="none" xmlns="http://www.w3.org/2000/svg"><path d="M39 1.875A1.877 1.877 0 0037.127 0H1.875a1.87 1.87 0 00-.7 3.608V28.91a.7.7 0 00.7.7h16.93v3.524L7.493 37.655a.7.7 0 00.517 1.301l11.493-4.595 11.49 4.595a.7.7 0 10.52-1.301l-11.311-4.522V29.61h16.921a.699.699 0 00.699-.7V3.61A1.869 1.869 0 0039 1.874zM1.875 1.4h35.252a.477.477 0 010 .951H1.875a.475.475 0 010-.95zm34.553 26.81H2.575V3.749h33.853v24.46z" fill="#00C3B5"/><path d="M7.7 22.855c.207 0 .409-.09.547-.263L16.44 12.37l6.892 5.623L32.924 6.14a.7.7 0 00-1.09-.881l-8.706 10.76-6.897-5.629-9.077 11.326a.702.702 0 00.546 1.14z" fill="#00C3B5"/></svg>