<svg width="47" height="36" fill="none" xmlns="http://www.w3.org/2000/svg"><path d="M45.856.044L31.054 4.39 16.244.044c-.03-.013-.06-.003-.097-.008a.899.899 0 00-.199-.02.886.886 0 00-.199.02c-.037.005-.068-.005-.097.008L.554 4.478c-.33.095-.554.348-.554.627v30.226c0 .22.137.423.364.55a1.028 1.028 0 00.78.077l14.802-4.35 14.806 4.35a1.08 1.08 0 00.596 0l15.098-4.438c.335-.096.554-.346.554-.627V.671c0-.22-.132-.424-.364-.548a1.014 1.014 0 00-.78-.079zM15.1 30.428L1.696 34.366V5.57L15.1 1.634v28.794zm15.106 3.938l-13.408-3.938V1.632l13.408 3.935v28.8zm15.102-3.938l-13.404 3.938V5.57l13.404-3.935v28.794z" fill="#00C3B5"/></svg>